<svg xmlns="http://www.w3.org/2000/svg" viewBox="0 0 246.01 88.39"><defs><style>.cls-1{fill:#fff;}</style></defs><g id="Layer_2" data-name="Layer 2"><g id="Layer_1-2" data-name="Layer 1"><path class="cls-1" d="M0,13.3a3.24,3.24,0,0,1,.12-.84l.79-2.9c0-.2,0-1.38,0-1.52a1.23,1.23,0,0,1,.11-.43h0a.3.3,0,0,1-.33-.29.92.92,0,0,1,.2-.71.6.6,0,0,1,.5-.19h.34c.9,0,3.3,0,3.7,0h.28c.4,0,.81,0,1.14,0s2.25,0,2.59.06a2.79,2.79,0,0,1,1.2.29,3.6,3.6,0,0,1,.52.68l.16.23a1.77,1.77,0,0,1,.86,1.41c0,.47.12,2.07.22,3.63.09,1.29.17,2.55.2,3.17.08,1.35.62,5.91.77,7a18.92,18.92,0,0,1,.21,2.82.24.24,0,0,1-.47,0A16.56,16.56,0,0,0,13,23c-.16-1.19-.69-5.71-.77-7.1,0-.61-.11-1.88-.2-3.16-.1-1.56-.2-3.17-.23-3.64a1.29,1.29,0,0,0-.63-1S11,8,11,8a1.75,1.75,0,0,1-.21-.29,6.45,6.45,0,0,0-.44-.59A2.78,2.78,0,0,0,9.45,7c-.38,0-2.14-.09-2.53-.06s-.78,0-1.19,0H5.46c-.4,0-2.87,0-3.69,0H1.41a.14.14,0,0,0-.16.05s-.05,0-.05.21h.26a.24.24,0,0,1,.22.15.21.21,0,0,1-.06.25A1.3,1.3,0,0,0,1.41,8c0,.15,0,1.56,0,1.56a.09.09,0,0,0,0,.05l-.8,2.93a2.38,2.38,0,0,0-.07,1.1c.06.21.23.81.3,1a.47.47,0,0,0,.22.19.22.22,0,0,1,.15.21l.05,1.79a.22.22,0,0,1-.07.17l-.34.33a.11.11,0,0,0,0,.06s0,3.36,0,3.47l.24.25a.24.24,0,0,1,.07.16V30l0,.3c0,1.14.08,19,.08,19.22v0a.23.23,0,0,1-.13.22,1.15,1.15,0,0,0-.3.28l0,3.49.35.36a.23.23,0,0,1,.06.16L1.31,70a.25.25,0,0,1-.15.21L1,70.27a.84.84,0,0,0-.33.32c.05.13.32.21.53.23a.23.23,0,0,1,.22.23l0,2.61a.25.25,0,0,1-.15.22,3.29,3.29,0,0,0-.63.31c-.1.07-.18.15,0,.36a3.21,3.21,0,0,0,.7.59.27.27,0,0,1,.11.19l0,2.31a.36.36,0,0,1-.06.15s-.54.68-.67.86l0,0C.46,79,.47,79,.52,79a1,1,0,0,0,.64.1.23.23,0,0,1,.18.05.25.25,0,0,1,.08.17v.18l0,2.56a.26.26,0,0,1-.1.19l-.27.2,0,3.64.24.21a.22.22,0,0,1,.08.15A1.61,1.61,0,0,0,3,87.93a.83.83,0,0,0,.66-.21.22.22,0,0,1,.17-.09,5.05,5.05,0,0,1,.89,0c.46,0,2,.06,2,.06a.23.23,0,0,1,.23.23h0a.23.23,0,0,1-.23.23c-.06,0-1.52,0-2-.06a4,4,0,0,0-.72,0,1.38,1.38,0,0,1-.95.3,2.07,2.07,0,0,1-2-1.76L.65,86.4a.21.21,0,0,1-.08-.17l0-3.86h0a.22.22,0,0,1,.1-.18L.92,82v0L1,79.6a1.16,1.16,0,0,1-.75-.22c-.39-.35-.07-.78.07-1l0,0,.64-.82,0-2.1a3,3,0,0,1-.73-.66.68.68,0,0,1,.17-1,3.66,3.66,0,0,1,.58-.31V71.25a1,1,0,0,1-.7-.4.47.47,0,0,1,0-.42,1.23,1.23,0,0,1,.58-.59l.07,0L.76,54.14l-.35-.36a.2.2,0,0,1-.06-.15L.31,50a.24.24,0,0,1,0-.13,1.66,1.66,0,0,1,.38-.41c0-1.29-.08-18.06-.08-19.19l0-.3V21.38l-.18-.17a.49.49,0,0,1-.13-.34c0-.11,0-3.49,0-3.49A.58.58,0,0,1,.48,17l.28-.26L.71,15.2a.81.81,0,0,1-.33-.37c-.1-.22-.3-.95-.33-1A2.27,2.27,0,0,1,0,13.3Z"/><path class="cls-1" d="M6.4,88a.23.23,0,0,1,.22-.23L11,87.55a23,23,0,0,1,2.84-.21,1.88,1.88,0,0,0,1.85-1.91.24.24,0,0,1,.47,0,2.34,2.34,0,0,1-2.31,2.38A24.85,24.85,0,0,0,11,88l-4.39.17A.22.22,0,0,1,6.4,88Z"/><path class="cls-1" d="M12.54,25.76a.23.23,0,0,1,.23-.23H13.9a.53.53,0,0,1,.41.23l0,0a1.77,1.77,0,0,1,.41.72c.05.28.55,4.74.56,4.93.09,1.26.39,5.4.39,5.5s0,1.09,0,1.09.46,2.37.54,2.68a6.25,6.25,0,0,1,.11.91,1.15,1.15,0,0,1,.52.79c0,.4,0,2.87,0,3a.27.27,0,0,1,0,.12l-.08.09c0,2.06-.19,24.64-.2,26.85l.09.06a.65.65,0,0,1,.18.47c0,.38,0,4.52,0,4.69a.28.28,0,0,1,0,.13s-.25.39-.42.61v.3a.22.22,0,0,1-.2.23h-.06l0,3.79a.23.23,0,0,1-.23.23.23.23,0,0,1-.23-.23h0l0-4a.24.24,0,0,1,.19-.23H16v-.18a.19.19,0,0,1,0-.14c.11-.15.32-.46.4-.59,0-.55,0-4.26,0-4.6,0-.1,0-.15,0-.15a.25.25,0,0,1-.17-.06.27.27,0,0,1-.06-.17c0-.39.19-26.9.19-27.17a.25.25,0,0,1,.12-.2c0-.53,0-2.47,0-2.8S16.14,42,16,42a.23.23,0,0,1-.11-.18,7.76,7.76,0,0,0-.11-1c-.08-.32-.53-2.65-.55-2.74s0-1.05,0-1.14-.28-4-.39-5.48c0-.19-.5-4.59-.55-4.86a1.44,1.44,0,0,0-.31-.52l0,0a.18.18,0,0,0-.07-.06H12.77A.23.23,0,0,1,12.54,25.76Z"/><path class="cls-1" d="M15.55,82.67h0l0-3.91a.34.34,0,0,1,.35-.34.34.34,0,0,1,.35.35l-.05,3.91a.35.35,0,1,1-.69,0Z"/><path class="cls-1" d="M15.55,82.67a.35.35,0,0,1,.34-.35.35.35,0,0,1,.35.35l0,2.7h0a.35.35,0,0,1-.35.35.35.35,0,0,1-.35-.34V82.67Z"/><path class="cls-1" d="M.14,13.3a3,3,0,0,1,.12-.8l.79-2.93s0-1.38,0-1.53a1.46,1.46,0,0,1,.19-.57H1.06c-.1,0-.19,0-.19-.15v0A.85.85,0,0,1,1,6.71a.48.48,0,0,1,.4-.15h.35c.9,0,3.3,0,3.69,0h.28c.41,0,.82,0,1.16,0s2.23,0,2.57.07a2.93,2.93,0,0,1,1.12.25,4.83,4.83,0,0,1,.5.66l.17.24.05,0a1.62,1.62,0,0,1,.77,1.29c0,.46.12,2.07.23,3.63.08,1.28.16,2.55.2,3.16.07,1.36.61,5.92.76,7.07a18.42,18.42,0,0,1,.21,2.79h-.19a18.12,18.12,0,0,0-.2-2.76c-.15-1.15-.69-5.72-.77-7.08,0-.62-.12-1.88-.2-3.17-.1-1.55-.2-3.16-.23-3.64A1.41,1.41,0,0,0,11.2,8a.14.14,0,0,1-.07-.06,1.3,1.3,0,0,1-.2-.27A4.31,4.31,0,0,0,10.47,7a2.66,2.66,0,0,0-1-.22c-.38,0-2.16-.09-2.55-.06a11.57,11.57,0,0,1-1.17,0H5.46c-.4,0-2.79,0-3.69,0H1.42a.28.28,0,0,0-.27.09.67.67,0,0,0-.1.45H1.7l-.17.16A1.22,1.22,0,0,0,1.28,8c0,.15,0,1.5,0,1.56l-.8,3a2.37,2.37,0,0,0-.07,1.17s.22.78.3,1A.59.59,0,0,0,1,15L1,15l.05,1.89,0,0-.34.33a.29.29,0,0,0-.06.15c0,.13,0,3.37,0,3.48a.16.16,0,0,0,0,.11l.27.26V30l0,.28c0,1.16.08,19.06.08,19.24v.12l-.05,0A1.48,1.48,0,0,0,.63,50l0,3.6.41.42.09,16-.27.11a.92.92,0,0,0-.41.4.19.19,0,0,0,0,.15c.11.19.52.26.65.27h.09l0,2.76-.06,0a3.44,3.44,0,0,0-.66.33c-.2.14-.23.31-.09.55a3.59,3.59,0,0,0,.74.62l.05,0,0,2.39,0,0s-.55.69-.68.87l0,0c-.19.26-.26.4-.11.53a1.14,1.14,0,0,0,.75.12h.11v.28l0,2.61-.37.27,0,3.77.32.28v0A1.75,1.75,0,0,0,3,88.06a1,1,0,0,0,.77-.25l0,0h0a5.39,5.39,0,0,1,.87,0c.47,0,2,.07,2,.07V88c-.06,0-1.51,0-2-.06a6.75,6.75,0,0,0-.8,0,1.19,1.19,0,0,1-.89.3A1.94,1.94,0,0,1,1,86.56l-.33-.29,0-4L1.06,82v-.12l0-2.46a1.22,1.22,0,0,1-.8-.18c-.3-.27,0-.6.09-.78l0,0,.66-.85,0-2.23a2.75,2.75,0,0,1-.75-.66.54.54,0,0,1,.13-.8,3.79,3.79,0,0,1,.64-.32V71.13a1,1,0,0,1-.72-.35.35.35,0,0,1,0-.3A1,1,0,0,1,.83,70L1,69.91.9,54.09l-.41-.43,0-3.72v0a1.8,1.8,0,0,1,.41-.41h0c0-.19-.08-18.09-.08-19.26l0-.28V21.32L.6,21.11a.45.45,0,0,1-.08-.24c0-.11-.05-3.46-.05-3.49a.43.43,0,0,1,.11-.27c.06-.06.24-.24.32-.3L.85,15.12a.8.8,0,0,1-.35-.34c-.09-.22-.3-1-.31-1A2.26,2.26,0,0,1,.14,13.3Z"/><path class="cls-1" d="M11.92,85.44A1.56,1.56,0,1,1,13.48,87,1.56,1.56,0,0,1,11.92,85.44Zm2.93,0a1.38,1.38,0,1,0-1.37,1.37A1.37,1.37,0,0,0,14.85,85.44Z"/><path class="cls-1" d="M1.06,82.09h.19l.16,4.45a2.26,2.26,0,0,0,2.38,1.23V88a2.44,2.44,0,0,1-2.57-1.36v0Z"/><rect class="cls-1" x="1.13" y="86.38" width="0.18" height="0.19"/><path class="cls-1" d="M3.73,34.55h0a2.56,2.56,0,1,1,5.11,0L9,64.34a2.55,2.55,0,1,1-5.1,0ZM8.79,64.34,8.66,34.55a2.37,2.37,0,0,0-4.74,0l.13,29.79a2.37,2.37,0,1,0,4.74,0Z"/><path class="cls-1" d="M6.07,32.07V25c0-4.31.1-7.77.33-11.2A31.13,31.13,0,0,1,7.57,7.34l.18,0a30.36,30.36,0,0,0-1.16,6.42c-.23,3.43-.33,6.88-.33,11.19v7.07Z"/><path class="cls-1" d="M4.53,70.17h0a1.94,1.94,0,1,1,3.87,0l.08,8.61a1.94,1.94,0,0,1-3.87,0Zm3.76,8.61-.08-8.61a1.75,1.75,0,1,0-3.49,0l.08,8.61a1.75,1.75,0,1,0,3.49,0Z"/><rect class="cls-1" x="6.3" y="66.83" width="0.18" height="1.5" transform="translate(-2.86 0.33) rotate(-2.43)"/><path class="cls-1" d="M1.46,7.47V7.29H3.87l2.92,0,1.89,0h.09a2.87,2.87,0,0,1,2.1.51c.61.66,1,2.79,1,3.79v.23a37.24,37.24,0,0,1-.1,7c-.1.41-.21.84-.33,1.3A19.56,19.56,0,0,0,10.61,25c0,1.55,0,5.34.08,7.85,0,1.11,0,2,0,2.24s0,2.33,0,4.4c0,2.6,0,5.54,0,6.25V69.21c0,.9.16,6.92.25,10.52,0,1.58.07,2.63.07,2.7v.69h2.78A2.21,2.21,0,0,1,16,85.43a2.18,2.18,0,0,1-2.17,2.24,25.55,25.55,0,0,0-2.83.2l-4.46.18-.17-7.41h.18l.17,7.21L11,87.69a23.36,23.36,0,0,1,2.85-.21,2,2,0,0,0,2-2,2,2,0,0,0-1.92-2.12h-3v-.88c0-.06,0-1.17-.07-2.7-.09-3.6-.24-9.62-.24-10.52V45.69c0-.71,0-3.65,0-6.25,0-2.16,0-4,0-4.4s0-1.13,0-2.24c0-2.51-.09-6.3-.07-7.86a19.72,19.72,0,0,1,.84-4.85c.12-.46.23-.89.33-1.3a37.54,37.54,0,0,0,.1-7v-.24a8.19,8.19,0,0,0-.95-3.66c-.48-.53-1.6-.48-2-.46h-2l-2.92,0Z"/><path class="cls-1" d="M1.3,38.94c0-.84,0-14.23.06-16.1s.29-15.32.29-15.46h.19c0,.14-.25,13.66-.29,15.46s-.06,15.26-.06,16.1c0,.49,0,5,.07,9.67,0,5.45.08,11.64.08,12.41,0,1.43.08,9.46.08,9.54H1.54c0-.08-.08-8.11-.08-9.54,0-.77-.05-7-.09-12.41C1.34,43.89,1.3,39.43,1.3,38.94Z"/><polygon class="cls-1" points="1.6 73.46 1.62 71.14 1.8 71.14 1.78 73.47 1.6 73.46"/><polygon class="cls-1" points="1.64 74.09 1.82 74.09 1.84 78.78 1.65 78.78 1.64 74.09"/><path class="cls-1" d="M1.63,79.25h.19c0,.06.06,6,.06,6.25h0c0,1.13.68,1.74,1.91,1.75,1.49,0,1.9,0,2.33,0h.53v.18l-.53,0c-.43,0-.84,0-2.33,0-1.33,0-2.1-.71-2.1-1.92h0C1.69,85.25,1.63,79.31,1.63,79.25Z"/><polygon class="cls-1" points="0.88 49.55 1.06 49.55 1.08 54.05 0.9 54.05 0.88 49.55"/><rect class="cls-1" x="-1.64" y="12.28" width="5.38" height="0.18" transform="translate(-11.35 12.9) rotate(-87.59)"/><polygon class="cls-1" points="0.83 21.28 0.9 16.84 1.08 16.85 1.01 21.29 0.83 21.28"/><path class="cls-1" d="M.17,13.49l.16-.1a2.35,2.35,0,0,0,.71.39L1,14A2.37,2.37,0,0,1,.17,13.49Z"/><path class="cls-1" d="M4.43,37.17l.07-2.63a1.72,1.72,0,0,1,1.59-1.68h.1v.3h.13v-.3l.1,0a1.67,1.67,0,0,1,1.49,1.67l0,2.79-.12,0a9.38,9.38,0,0,0-3.28-.13ZM6,33.06a1.53,1.53,0,0,0-1.33,1.48L4.62,37a10.38,10.38,0,0,1,3.12.11V34.54A1.5,1.5,0,0,0,6.5,33.06v.27H6Z"/><path class="cls-1" d="M4.28,39.27V37.38h.09a20.46,20.46,0,0,1,3.45.06h.09v.08c0,.29-.09,7-.1,7.23v.14a.83.83,0,0,1-.13.52,5.46,5.46,0,0,1-.74.91l0,0H6.85a7.81,7.81,0,0,0-1.61,0h0l-.82-1.13.06-5.9Zm.2-1.73v1.59l.14,0v.07l-.05,5.91.72,1a7.51,7.51,0,0,1,1.57,0,7.24,7.24,0,0,0,.67-.84.56.56,0,0,0,.1-.42v-.17c0-.21.1-6.32.11-7.12A20.28,20.28,0,0,0,4.48,37.54Z"/><path class="cls-1" d="M4.39,39.24v-.19h.42c1.11,0,1.84,0,2,0s.2-.29.2-.35,0-.15,0-.31,0-.59,0-.69-.14-.14-.21-.16l.05-.17s.34.1.34.33,0,.43,0,.69,0,.29,0,.31c0,.24-.1.51-.37.53s-1.36,0-2,0Z"/><path class="cls-1" d="M4.47,34.78l.18-.05a1.75,1.75,0,0,0,1.63,1.12A1.53,1.53,0,0,0,7.76,34.8l.18.05A1.73,1.73,0,0,1,6.28,36,1.93,1.93,0,0,1,4.47,34.78Z"/><path class="cls-1" d="M5.4,50.88V46.23h.18v4.48a3.7,3.7,0,0,0,.92,0l0-4.48h.19v4.63l-.07,0a4,4,0,0,1-1.13,0Z"/><path class="cls-1" d="M4.05,55.93a5.24,5.24,0,0,1,.54-2l.46-1.43c0-.14,0-1.31,0-1.35a.54.54,0,0,1,.15-.32.38.38,0,0,1,.28-.09l0,.19a.12.12,0,0,0-.13,0,.31.31,0,0,0-.09.19h0s0,1.36,0,1.36v0L4.76,54a4.68,4.68,0,0,0-.52,2c0,2,.11,5.66.12,5.78a1.76,1.76,0,0,1,0,.38,24.5,24.5,0,0,0,.1,3,.86.86,0,0,0,.87.71h.08a20.36,20.36,0,0,0,2.26-.08c.56-.07.57-.73.57-.75s-.13-5.48-.16-6.32a21.11,21.11,0,0,0-.13-3A22.92,22.92,0,0,0,6.8,52.5v0l0-1.48-.21-.14.1-.15.29.19L7,52.44a23,23,0,0,1,1.17,3.22,25.13,25.13,0,0,1,.13,3.08c0,.85.15,6.27.15,6.32A.89.89,0,0,1,7.7,66a18.83,18.83,0,0,1-2.32.08H5.32a1,1,0,0,1-1-.86,24.54,24.54,0,0,1-.11-3v-.35c0-.06-.09-4.08-.13-5.81Z"/><path class="cls-1" d="M5.07,43.6a.29.29,0,0,1,.29-.29H6.71A.28.28,0,0,1,7,43.6a.27.27,0,0,1-.28.28H5.36A.28.28,0,0,1,5.07,43.6Zm1.74,0a.1.1,0,0,0-.1-.1H5.36a.09.09,0,0,0-.1.1.1.1,0,0,0,.1.1H6.71A.11.11,0,0,0,6.81,43.6Z"/><path class="cls-1" d="M.77,70.44s0-.12.25-.17L1,70l.19,0,.05.45H1.17a17.64,17.64,0,0,0,1.92.16v-.09l.07,0s.78-.13,1.37-.16h0a.2.2,0,0,1,.12-.09L5,70.15a11.25,11.25,0,0,1,1.71-.07.67.67,0,0,1,.52.64.75.75,0,0,1-.69.76c-.43,0-1.63,0-1.68,0h0l-.13-.07-1.57,0v0a12.37,12.37,0,0,1-2-.18l0-.18a11.77,11.77,0,0,0,2,.17h.08v.05l1.48.06.12.06c.16,0,1.26,0,1.65,0A.58.58,0,0,0,7,70.72a.49.49,0,0,0-.37-.46A11.72,11.72,0,0,0,5,70.33l-.32.06a.19.19,0,0,1-.17.1c-.48,0-1.06.12-1.27.15v.12H3.18a16.27,16.27,0,0,1-2.07-.16c-.19,0-.34,0-.34-.15Z"/><path class="cls-1" d="M.64,74.43a.24.24,0,0,1,.18-.23c.3-.13.32-.14.37-.1l0,0v0a.08.08,0,0,1,0,.06V75L1.07,75C1,74.9.64,74.66.64,74.43ZM1,74.31l-.13.06c-.05,0-.07,0-.07.06s.09.17.2.25Z"/><path class="cls-1" d="M.7,78.88s0-.13.39-.52l.16-.16V79H1.17c-.38.08-.44,0-.46,0v-.06Z"/><path class="cls-1" d="M1.12,73.57a5.12,5.12,0,0,1,2-.2v-.11l1.43-.07a1.92,1.92,0,0,1,.72-.11l.44,0a3.21,3.21,0,0,1,1,0l0,0a.6.6,0,0,1,.46.66.74.74,0,0,1-.18.57.9.9,0,0,1-.68.18l-1.52-.09-.27,0,0-.06-1.44-.07v-.18a17.06,17.06,0,0,0-2,.18l0-.18A16.31,16.31,0,0,1,3.2,73.9h.08l0,.19,1.38.07,0,.07.18,0,1.5.1A.8.8,0,0,0,7,74.21a.57.57,0,0,0,.12-.44c0-.36-.14-.41-.33-.49l-.06,0a3.45,3.45,0,0,0-1,0l-.45,0c-.51,0-.63.09-.63.1l0,0h0l-1.29.07v.12H3.2a5,5,0,0,0-2,.19Z"/><polygon class="cls-1" points="1.02 74.87 1.21 74.86 1.23 75.33 1.04 75.34 1.02 74.87"/><polygon class="cls-1" points="1.06 78.42 1.08 77.64 1.27 77.64 1.25 78.42 1.06 78.42"/><path class="cls-1" d="M1.12,78.8c.78-.13,2.33-.39,2.57-.47a8.28,8.28,0,0,1,1.48-.14.58.58,0,0,0,.25-.11,1.09,1.09,0,0,1,.38-.14H7.07a.6.6,0,0,1,.34.12.25.25,0,0,1,.08.18v.6a.45.45,0,0,1-.45.41c-.33,0-1.19,0-1.23,0a3.2,3.2,0,0,1-.45-.1,6.86,6.86,0,0,0-.82,0H4.35a13.24,13.24,0,0,0-1.93.07l-.86.17-.36.07,0-.19.34-.06c.22,0,.53-.12.87-.17a13.22,13.22,0,0,1,2-.08h.18a3.77,3.77,0,0,1,.9,0l.4.09h0s.88,0,1.21,0a.26.26,0,0,0,.26-.24v-.59a.06.06,0,0,0,0,0,.29.29,0,0,0-.2-.06H5.81a.72.72,0,0,0-.3.12.85.85,0,0,1-.34.13,8.34,8.34,0,0,0-1.43.13c-.3.1-2.5.46-2.59.47Z"/><path class="cls-1" d="M5.87,76.83V76l1.07.11v.85Zm.18-.64v.48l.71.07v-.48Z"/><polygon class="cls-1" points="6.76 76.99 6.76 76.12 7.12 75.94 7.12 76.81 6.76 76.99"/><path class="cls-1" d="M10.86,50.14v-4h.22c0-1.13.12-12.26.18-14.76s.15-3.48.15-3.48c0-.31,0-1.94.4-2.22a1,1,0,0,1,.77-.17h.12l.11.12H13.9a.4.4,0,0,1,.31.18l0,0a1.76,1.76,0,0,1,.38.66c.05.28.54,4.73.55,4.91,0,.55.39,5.4.39,5.5s0,1.09,0,1.09.47,2.4.54,2.71a6.93,6.93,0,0,1,.12,1,1.07,1.07,0,0,1,.51.72c0,.39,0,2.86,0,3v0a.22.22,0,0,1-.1.09c0,1.51-.19,25.42-.2,27a.23.23,0,0,1,.13.08.46.46,0,0,1,.14.36c0,.39,0,4.52,0,4.69v0s-.28.43-.44.64v.43l-.26,0,0,3.91h0v0l-5,.06-.11-12.26c0-1.78.22-19,.24-20.44Zm.42-.22V50S11.06,68.7,11,70.56l.11,12.07,4.65,0,0-3.91L16,70.33c0-.09.06-9,0-10.18,0-.27,0-1-.05-2.06-.08-3.58-.23-10.24-.17-10.87,0-.31.09-.79.14-1.29.09-.83.19-1.77.19-2s-.07-2.16-.07-2.21a6.67,6.67,0,0,0-.12-1c-.07-.31-.53-2.63-.54-2.73s0-1,0-1.11-.26-3.63-.39-5.49c0-.18-.5-4.6-.56-4.88a1.46,1.46,0,0,0-.34-.58l0,0a.27.27,0,0,0-.16-.11H12.73l-.12-.12h0a.79.79,0,0,0-.64.14c-.26.18-.34,1.37-.33,2.08,0,0-.09.85-.15,3.47s-.18,14.73-.18,14.85v.09H11v3.59Zm5-5.94c0,.19-.1,1.09-.2,2L16,47.23c-.06.63.09,7.28.17,10.86,0,1,0,1.78,0,2,0,1.2,0,10.11,0,10.2L16,78.64h.08V78.3l0,0c.13-.16.37-.53.43-.63,0-.36,0-4.29,0-4.65s-.15-.28-.18-.28h-.09v-.09c0-.39.19-26.9.19-27.17v-.09h.12c0-.3,0-2.55,0-2.91a.73.73,0,0,0-.31-.49C16.28,42.44,16.33,43.73,16.33,44Z"/><path class="cls-1" d="M11.93,82.69a25.48,25.48,0,0,0,1.64-5.48c.22-2.15.41-7.81.43-9.29s.12-9,.14-10.37.07-10.76.06-12.27-.14-7.06-.16-7.73-.66-7.7-.87-9-.47-2.7-.48-2.72l.19,0s.26,1.35.47,2.72.86,8.38.88,9.07.13,6.21.15,7.74,0,10.87-.06,12.27-.11,8.85-.13,10.37-.22,7.16-.43,9.31a25.1,25.1,0,0,1-1.66,5.53Z"/><path class="cls-1" d="M13.81,25.78l.18,0a18.68,18.68,0,0,1,.37,1.9c.1.82.76,9.66.78,10.72s.31,9.92.31,10l.16,14.54-.08,12.85-.1,7h-.18l.09-7,.08-12.85-.15-14.54c0-.09-.29-9-.31-10s-.68-9.88-.78-10.7S13.81,25.79,13.81,25.78Z"/><rect class="cls-1" x="13.43" y="75.38" width="5.72" height="0.19" transform="translate(-59.67 89.36) rotate(-88.18)"/><polygon class="cls-1" points="15.8 82.67 15.99 82.67 16 85.37 15.82 85.37 15.8 82.67"/><path class="cls-1" d="M184.79,52.08l-.27-.12.08-.17h0V49.52a1.67,1.67,0,0,1,.7-1.51l.09.16a1.48,1.48,0,0,0-.61,1.35Z"/><path class="cls-1" d="M123.2,85.65l-1.28,0h-.07l-.06,0a.41.41,0,0,1-.19-.39s0-.06,0-.09a.54.54,0,0,1-.19-.25.23.23,0,0,1-.07-.07.63.63,0,0,1-.07-.52l.82-4.79.38-.35,2.77-16.65h-.67l-.17.18a.55.55,0,0,1-.34.13l-3.44,0a.56.56,0,0,1-.37-.15L120,62.4l-1.53.05a.81.81,0,0,1-.37.33c-.21.09-.93.29-1,.32a2.51,2.51,0,0,1-.5,0,3,3,0,0,1-.83-.12l-2.87-.78-1.49,0a1.23,1.23,0,0,1-.43-.11.31.31,0,0,1-.29.33h-.1a.77.77,0,0,1-.61-.2.61.61,0,0,1-.18-.49v-.35c0-.89,0-3.25,0-3.65v-.26c0-.4,0-.81,0-1.14s0-2.22.07-2.57a2.66,2.66,0,0,1,.28-1.18,4,4,0,0,1,.68-.52l.22-.16a1.76,1.76,0,0,1,1.4-.84l3.66-.23,3.06-.2c1.31-.07,5.78-.59,7-.75a20.18,20.18,0,0,1,2.51-.21c.3,0,.58,0,.86,0l1,.13a37.81,37.81,0,0,0,4.88.42c1.53,0,4.15,0,6.47.06s4.24,0,5,.05c1.57,0,5.69.27,7.43.42,1.07.09,2,.1,2.89.1.55,0,1,0,1.44,0l2.42.17c2.23.16,5.29.38,6,.4l2.18.12c1.63.09,3.67.2,4.61.21H174c.85,0,2.15,0,3.3-.07.94,0,1.83,0,2.32,0,.94,0,3.83-.05,4.67-.06V46.92l.33-.09,5.7,0v.32c0,.06,0,6.25.25,9.4,0,.08,0,1.52-.06,2,0,.32,0,.59,0,.72a1.34,1.34,0,0,1,.3.93,2,2,0,0,1-1.74,2l-.29.34-4,0,3.05,16.09c.15.06.33.21.41.64s.84,4.56.84,4.56a.76.76,0,0,1-.17.66l-.06.14,0,.58-2.38,0-.08-.09a3.09,3.09,0,0,1-.36-.49s0-.12-.53-2.43c0-.17-.16-.86-.2-1.05a1.71,1.71,0,0,1-.19-.48c-.06-.29-.78-4.25-.83-4.54a.3.3,0,0,1,0-.2.44.44,0,0,1,.2-.21l-2.55-13a.41.41,0,0,1-.07.11.54.54,0,0,1-.4.19,1,1,0,0,1-.56-.25l0,0-.81-.63-2.07,0a2.77,2.77,0,0,1-.66.72.76.76,0,0,1-.43.14.65.65,0,0,1-.55-.31,3.91,3.91,0,0,1-.3-.57h-2.22a1,1,0,0,1-.4.69.46.46,0,0,1-.23.06c-.39,0-.7-.46-.77-.62l0-.06L157,62.4l-.43.41-3.78,0-.06,0a1.6,1.6,0,0,1-.4-.39l-19,.12L131,76.15a.38.38,0,0,1,.13.09.37.37,0,0,1,.09.28c0,.19-.61,3.47-.73,4.13l0,.06a2.27,2.27,0,0,1-.25.42,2.22,2.22,0,0,1-1,.86,7.11,7.11,0,0,1-1,.12L125.36,84a.69.69,0,0,1-.14.51c-.1.11-.68.58-.75.64l-.56.42-.28.09Zm-1.13-.48c.34,0,1.29,0,1.45,0l.21-.05.46-.37.71-.59a2.46,2.46,0,0,0,0-.28l0-.14,3.15-2.1h.06a8.64,8.64,0,0,0,1-.11c.13,0,.39-.23.77-.7a3.4,3.4,0,0,0,.18-.3c.26-1.44.64-3.55.71-4h-.29l2.5-14.49h.19L152.37,62h.2l.07.14a.94.94,0,0,0,.27.29l3.45,0,.42-.41,16-.09.14.36c.05.11.25.33.34.33a.84.84,0,0,0,.2-.53v-.22l2.95,0,.06.15a4,4,0,0,0,.31.63c.08.11.14.11.17.11a.32.32,0,0,0,.18-.07,2.89,2.89,0,0,0,.59-.69l.06-.1,2.49,0,.07.06.86.67,0,0a.74.74,0,0,0,.28.16s0,0,0,0a1.06,1.06,0,0,0,.09-.63l0-.26h.63l2.82,14.35-.19.06-.09,0c.1.56.76,4.2.82,4.46a1,1,0,0,0,.13.34l0,0,0,.06s.16.89.2,1.08c.23,1.09.47,2.25.51,2.36a2.29,2.29,0,0,0,.22.28h1.67V84.6l.14-.28a.42.42,0,0,0,.11-.32s-.75-4-.85-4.58c0-.24-.11-.28-.11-.28l-.26.1V79l-.66-3.54-2.6-13.64h.56l.27.36,3.59,0,.27-.31h.09a1.59,1.59,0,0,0,1.43-1.57.84.84,0,0,0-.2-.64l-.08-.06,0-.11a6.53,6.53,0,0,1,0-.89c0-.45.06-1.92.06-1.93-.18-2.89-.24-8.34-.25-9.28l-4.51,0h-.6v4.82h-.23s-3.8.06-4.9.06c-.48,0-1.37,0-2.31,0-1.15,0-2.45.07-3.31.07h-.22c-.95,0-3-.12-4.64-.21-.94,0-1.76-.1-2.17-.11-.75,0-3.81-.25-6-.41l-2.41-.17q-.6,0-1.41,0c-.86,0-1.84,0-2.93-.1-1.73-.15-5.84-.37-7.41-.42-.72,0-2.78,0-5-.05s-5,0-6.48-.06a38.63,38.63,0,0,1-4.94-.42l-1-.13c-.26,0-.52,0-.81,0a19.3,19.3,0,0,0-2.45.21c-1.23.16-5.66.68-7,.76l-3.05.19-3.67.23a1.25,1.25,0,0,0-1,.63.36.36,0,0,0-.07.09l-.29.21a5.08,5.08,0,0,0-.59.43,2.61,2.61,0,0,0-.17.92c0,.38-.09,2.12-.07,2.5s0,.78,0,1.19v.26c0,.38,0,2.74,0,3.63v.36c0,.08,0,.11,0,.16s0,.05.21.05v-.85l.4.43a1.24,1.24,0,0,0,.49.21l1.53,0H113l2.89.79a2.56,2.56,0,0,0,.71.11,1.48,1.48,0,0,0,.37,0c.21-.06.8-.23,1-.3a.48.48,0,0,0,.18-.21l0-.15,2-.05.07.07.32.33.06,0,3.43,0,.31-.3h1.41l-2.88,17.34-.38.35-.79,4.65s0,0,0,0l.1,0,0,.31a.11.11,0,0,0,.08.1l.15.06V85S122.07,85.08,122.07,85.17Z"/><path class="cls-1" d="M110.83,61.7h-.18V59.33c0-.19,0-1.64,0-2.89,0-.95,0-1.79,0-1.87v-.09a2.86,2.86,0,0,1,.5-2.08c.66-.6,2.76-.94,3.74-1h.21a37.43,37.43,0,0,1,7,.1l1.28.33a19.71,19.71,0,0,0,4.77.83c1.54,0,5.29,0,7.77-.08l2.21,0,4.35,0,6.18,0h23.25c.88,0,6.84-.15,10.4-.25l2.67-.06h.68V49.41a2.18,2.18,0,0,1,2.29-2.08,2.15,2.15,0,0,1,2.2,2.15,23.12,23.12,0,0,0,.21,2.79l-.18,0a23.11,23.11,0,0,1-.21-2.83,2,2,0,0,0-2-2,2,2,0,0,0-2.11,1.9v2.94h-.86l-2.67.06c-3.56.09-9.51.24-10.4.24H148.61l-6.18.05-4.35,0-2.2,0c-2.49,0-6.24.09-7.78.07a19.88,19.88,0,0,1-4.81-.83L122,51.68a36.86,36.86,0,0,0-6.94-.09h-.21a7.88,7.88,0,0,0-3.62.94c-.52.47-.47,1.57-.45,1.93v.1c0,.08,0,.92,0,1.87,0,1.25,0,2.7,0,2.89Z"/><path class="cls-1" d="M187.9,51.37a1.55,1.55,0,1,1,1.54-1.55A1.55,1.55,0,0,1,187.9,51.37Zm0-2.9a1.36,1.36,0,1,0,1.36,1.35A1.35,1.35,0,0,0,187.9,48.47Z"/><polygon class="cls-1" points="185.65 52.34 185.37 52.17 185.37 52.12 185.34 47.09 185.52 47.09 185.55 52.07 185.75 52.18 185.65 52.34"/><path class="cls-1" d="M184.59,62.1v-.19l4.4-.15a2.24,2.24,0,0,0,1.21-2.35h.18A2.43,2.43,0,0,1,189,61.94h0Z"/><rect class="cls-1" x="188.83" y="61.85" width="0.18" height="0.18"/><path class="cls-1" d="M137.6,59.46h0a2.53,2.53,0,1,1,0-5.05L167,54.28a2.53,2.53,0,1,1,0,5Zm29.44-5-29.44.13a2.35,2.35,0,1,0,0,4.69L167,59.15a2.35,2.35,0,1,0,0-4.69Z"/><path class="cls-1" d="M135.14,57.15h-7c-4.27,0-7.69-.1-11.08-.32a30.92,30.92,0,0,1-6.39-1.16l.06-.18a30.92,30.92,0,0,0,6.35,1.15c3.38.23,6.79.33,11.06.33h7Z"/><path class="cls-1" d="M172.81,58.67h0a1.91,1.91,0,1,1,0-3.82l8.5-.08a1.91,1.91,0,1,1,0,3.82Zm8.5-3.72-8.5.08a1.73,1.73,0,1,0,0,3.45l8.5-.07a1.73,1.73,0,0,0,0-3.46Z"/><polygon class="cls-1" points="169.51 56.96 169.5 56.78 170.98 56.71 170.99 56.9 169.51 56.96"/><polygon class="cls-1" points="183.16 56.86 183.16 56.67 190.38 56.51 190.38 56.69 183.16 56.86"/><rect class="cls-1" x="187.75" y="47.08" width="0.18" height="0.32"/><path class="cls-1" d="M141.94,61.86c-.8,0-14.07,0-15.92-.06l-15.28-.29v-.18l15.28.29c1.85,0,15.12.05,15.92.05l9.56-.06c5.39,0,11.5-.09,12.27-.09,1.4,0,9.35-.08,9.43-.08v.19c-.08,0-8,.08-9.43.08l-12.27.08Z"/><polygon class="cls-1" points="176.06 61.57 173.76 61.55 173.77 61.37 176.06 61.38 176.06 61.57"/><polygon class="cls-1" points="176.68 61.53 176.68 61.35 181.32 61.33 181.32 61.51 176.68 61.53"/><path class="cls-1" d="M181.78,61.53v-.18l6.18-.06h0c1.1,0,1.71-.67,1.72-1.89,0-1.47,0-1.87,0-2.29,0-.16,0-.32,0-.53h.18c0,.21,0,.37,0,.52,0,.43,0,.83,0,2.3a1.82,1.82,0,0,1-1.9,2.07h0Z"/><polygon class="cls-1" points="152.43 62.28 152.43 62.1 156.87 62.08 156.87 62.26 152.43 62.28"/><rect class="cls-1" x="115.57" y="59.45" width="0.19" height="5.32" transform="translate(48.81 175.1) rotate(-87.62)"/><rect class="cls-1" x="122.2" y="60.01" width="0.18" height="4.39" transform="translate(58.19 183.51) rotate(-89.11)"/><path class="cls-1" d="M116.78,63l-.11-.16a2.09,2.09,0,0,0,.39-.7l.18.07A2.61,2.61,0,0,1,116.78,63Z"/><path class="cls-1" d="M140.19,58.77l-2.6-.06a1.72,1.72,0,0,1-1.67-1.58V57h.29v-.12h-.29v-.1a1.66,1.66,0,0,1,1.66-1.48l2.75,0,0,.12a9.73,9.73,0,0,0-.12,3.24Zm-4.07-1.55a1.51,1.51,0,0,0,1.47,1.3l2.4.06a11.11,11.11,0,0,1,.1-3.08h-2.5a1.49,1.49,0,0,0-1.46,1.22h.26v.49Z"/><path class="cls-1" d="M142.26,58.92h-1.87v-.08a20.07,20.07,0,0,1,.06-3.42v-.09h.08l7.14.1h.15a.81.81,0,0,1,.51.13,5.82,5.82,0,0,1,.9.73l0,0v.05a7.61,7.61,0,0,0,0,1.59V58l-1.12.8-5.83,0Zm-1.71-.2h1.57l0-.14h.07l5.85,0,1-.7a7.32,7.32,0,0,1,0-1.55,5.48,5.48,0,0,0-.83-.67.62.62,0,0,0-.41-.11h-.17l-7-.1A21.06,21.06,0,0,0,140.55,58.72Z"/><path class="cls-1" d="M142.23,58.81H142V58.4c0-1.1,0-1.82,0-2s-.29-.2-.34-.2h-.3l-.69,0c-.07,0-.14.13-.15.2l-.18-.05s.1-.34.33-.34l.68,0h.31c.23,0,.5.09.53.36s0,1.34,0,2Z"/><path class="cls-1" d="M137.83,58.74l-.05-.18a1.73,1.73,0,0,0,1.1-1.62,1.49,1.49,0,0,0-1-1.46l0-.18a1.7,1.7,0,0,1,1.17,1.64A1.93,1.93,0,0,1,137.83,58.74Z"/><path class="cls-1" d="M153.74,57.82h-4.6v-.19h4.43a3.55,3.55,0,0,0,0-.9h-4.43v-.18l4.58,0,0,.08a3.93,3.93,0,0,1,0,1.12Z"/><path class="cls-1" d="M158.73,59.14a5.1,5.1,0,0,1-2-.52l-1.41-.46-1.33,0a.51.51,0,0,1-.32-.15.33.33,0,0,1-.09-.27h.19a.12.12,0,0,0,0,.13A.27.27,0,0,0,154,58h0l1.35,0h0l1.44.46a4.6,4.6,0,0,0,2,.52l5.72-.12h.39a25.59,25.59,0,0,0,3-.09.85.85,0,0,0,.7-.87.23.23,0,0,0,0-.07,20,20,0,0,0-.08-2.24c-.06-.55-.71-.56-.74-.56l-6.24.15a23.94,23.94,0,0,0-3,.13,22.69,22.69,0,0,0-3.16,1.15h0l-1.46,0-.14.21-.15-.11.19-.28,1.53,0a22,22,0,0,1,3.19-1.15,21.09,21.09,0,0,1,3-.13l6.25-.16a.89.89,0,0,1,.93.73,18,18,0,0,1,.07,2.29v.06a1.06,1.06,0,0,1-.85,1,25.88,25.88,0,0,1-3,.1h-.37l-5.74.12Z"/><path class="cls-1" d="M146.54,58.14a.29.29,0,0,1-.29-.29V56.52a.28.28,0,0,1,.29-.28.27.27,0,0,1,.28.28v1.33A.28.28,0,0,1,146.54,58.14Zm0-1.72a.11.11,0,0,0-.1.1v1.33a.09.09,0,0,0,.1.1.1.1,0,0,0,.1-.1V56.52A.11.11,0,0,0,146.54,56.42Z"/><path class="cls-1" d="M173.08,62.39c-.07,0-.13,0-.18-.25l-.28,0,0-.19.44-.05v0a15.19,15.19,0,0,0,.16-1.88h-.09l0-.08s-.13-.76-.16-1.34v0a.19.19,0,0,1-.08-.13v0c0-.14,0-.24-.05-.26a9.9,9.9,0,0,1-.07-1.69.64.64,0,0,1,.63-.51.74.74,0,0,1,.76.68c0,.42,0,1.61,0,1.66v0l-.06.13,0,1.56h-.05a10.74,10.74,0,0,1-.17,1.95l-.18,0a12.62,12.62,0,0,0,.17-2v-.08h.05l.05-1.46.06-.12c0-.16,0-1.25,0-1.63a.57.57,0,0,0-.57-.51.48.48,0,0,0-.45.37,11.42,11.42,0,0,0,.07,1.6s0,.1.05.28v0a.22.22,0,0,1,.1.17c0,.46.11,1,.14,1.25h.12V60a16.24,16.24,0,0,1-.16,2.06c0,.18,0,.32-.14.33Z"/><path class="cls-1" d="M177,62.51a.24.24,0,0,1-.23-.18c-.13-.29-.13-.31-.1-.36l0,0h.05l0,0h.8l-.09.14C177.48,62.16,177.25,62.51,177,62.51Zm-.12-.37.06.12c0,.05,0,.07.06.07s.16-.09.25-.19Z"/><path class="cls-1" d="M181.42,62.46s-.13,0-.52-.39l-.16-.16h.76l0,.08c.07.38,0,.43,0,.45l0,0Z"/><path class="cls-1" d="M124.9,81.17l.06-.49c0-.28.09-.67.1-.82l-.07,0-.19-.07,0-.19,1.42-8.63,1.44-8.18h-.31l.07-.67h3.79l-2.43,14.17-.07,0a5.79,5.79,0,0,0-.56,2.3l0,.18-.18,0a2,2,0,0,0-.4.57l0,0Zm.42-1.69a.42.42,0,0,1,.2.34c0,.07,0,.24,0,.42l1.7-1.12a2.26,2.26,0,0,1,.54-.68,6,6,0,0,1,.66-2.43l2.31-13.45h-2.51L126.71,71Z"/><polygon class="cls-1" points="124.86 80.06 122.4 79.58 122.44 79.4 124.8 79.86 125.08 79.58 125.21 79.71 124.86 80.06"/><rect class="cls-1" x="121.58" y="82.56" width="5.51" height="0.19" transform="translate(18.47 187.93) rotate(-78.46)"/><path class="cls-1" d="M125.21,83.89l-.17,0a10.58,10.58,0,0,0,.26-1.2.7.7,0,0,0-.14-.64l.12-.14a.86.86,0,0,1,.2.81A9.73,9.73,0,0,1,125.21,83.89Z"/><path class="cls-1" d="M128.15,82l-.1-.16,1-.65c.26-2,.31-2,.36-2l.1.16-.05-.08.08,0c-.05.11-.22,1.27-.31,2v0Z"/><path class="cls-1" d="M129,81.88l0-.19a.56.56,0,0,0,.41-.48l.34-1.92.38-.27a9,9,0,0,1,.57-2.45l.21-.14.1.15-.2.14a11.83,11.83,0,0,0-.5,2.36v0l-.38.27-.33,1.85A.76.76,0,0,1,129,81.88Z"/><polygon class="cls-1" points="127.42 79.36 127.32 79.2 128.13 78.75 128.51 76.11 128.69 76.14 128.3 78.86 127.42 79.36"/><polygon class="cls-1" points="124.95 82.22 125.1 80.7 125.29 80.72 125.17 81.85 129.45 79.12 128.2 78.89 128.23 78.71 129.95 79.02 124.95 82.22"/><polygon class="cls-1" points="129.98 78.82 129.8 78.78 132.71 62.42 130.97 62.42 130.97 62.23 132.93 62.23 132.91 62.34 129.98 78.82"/><polygon class="cls-1" points="132.82 62.42 132.81 62.23 133.12 62.21 133.13 62.4 132.82 62.42"/><polygon class="cls-1" points="127.66 62.42 125.52 62.33 125.53 62.15 127.66 62.23 127.66 62.42"/><polygon class="cls-1" points="124.75 80 124.62 79.73 124.62 79.71 127.43 62.66 127.61 62.69 124.81 79.71 124.91 79.92 124.75 80"/><path class="cls-1" d="M176.17,62a5,5,0,0,1-.2-2h-.11l-.07-1.42a2.07,2.07,0,0,1-.11-.7c0-.15,0-.3,0-.45a3.41,3.41,0,0,1,0-1l0-.06a.6.6,0,0,1,.65-.44.78.78,0,0,1,.57.17.9.9,0,0,1,.18.68S177,58.1,177,58.32l0,.28-.06,0-.07,1.43h-.17a13,13,0,0,0,.18,1.93l-.19,0a15.84,15.84,0,0,1-.18-2v-.08l.19,0,.06-1.37.07,0,0-.17c0-.22.09-1.44.09-1.49a.76.76,0,0,0-.12-.54.59.59,0,0,0-.44-.12.42.42,0,0,0-.48.33l0,.06a3.44,3.44,0,0,0,0,.94c0,.15,0,.3,0,.45,0,.51.08.62.09.63l0,0v0l.07,1.27h.12V60a5.26,5.26,0,0,0,.18,2Z"/><polygon class="cls-1" points="177.45 62.13 177.45 61.95 177.91 61.93 177.91 62.12 177.45 62.13"/><polygon class="cls-1" points="180.96 62.1 180.19 62.08 180.19 61.9 180.97 61.91 180.96 62.1"/><path class="cls-1" d="M181.34,62c-.13-.77-.39-2.3-.46-2.53a8.18,8.18,0,0,1-.14-1.47.63.63,0,0,0-.11-.24.84.84,0,0,1-.14-.38c0-.15,0-.74,0-1.06v-.2a.57.57,0,0,1,.11-.34.26.26,0,0,1,.19-.07h.59a.44.44,0,0,1,.41.44c0,.33,0,1.18,0,1.22a3.46,3.46,0,0,1-.11.44,5.29,5.29,0,0,0,0,.81v.2a12,12,0,0,0,.08,1.89c.05.33.11.63.16.85s.06.3.07.36l-.19,0s0-.18-.06-.34-.11-.53-.17-.86a13,13,0,0,1-.07-1.92V58.8a.72.72,0,0,0,0-.13,3.76,3.76,0,0,1,0-.89,1.83,1.83,0,0,0,.09-.39h0s0-.87,0-1.19a.26.26,0,0,0-.23-.27h-.58l0,0a.43.43,0,0,0-.07.2v.21c0,.32,0,.9,0,1a1.33,1.33,0,0,0,.12.3.69.69,0,0,1,.13.33,8,8,0,0,0,.13,1.41c.1.3.46,2.47.47,2.56Z"/><path class="cls-1" d="M179.4,57.35h-.85l.11-1.06h.84Zm-.64-.18h.47l.07-.69h-.47Z"/><polygon class="cls-1" points="179.55 56.48 178.69 56.48 178.51 56.12 179.37 56.12 179.55 56.48"/><path class="cls-1" d="M185.11,79.75a.29.29,0,0,1,0-.24.44.44,0,0,1,.32-.17c.33,0,2.13-.51,2.15-.51l0,.18c-.07,0-1.82.46-2.16.51a.3.3,0,0,0-.19.09.19.19,0,0,0,0,.1Z"/><polygon class="cls-1" points="185.39 79.45 184.71 75.96 184.89 75.92 185.57 79.42 185.39 79.45"/><path class="cls-1" d="M30.17,65.21a3.25,3.25,0,0,1-.85-.12l-2.9-.79-1.51,0a1.18,1.18,0,0,1-.43-.11h0a.31.31,0,0,1-.3.33,1,1,0,0,1-.71-.19.61.61,0,0,1-.18-.51v-.34c0-.9,0-3.3,0-3.7v-.28a11,11,0,0,0,0-1.14c0-.43,0-2.25.06-2.59a2.79,2.79,0,0,1,.29-1.2,4,4,0,0,1,.68-.52l.24-.16A1.73,1.73,0,0,1,26,53l3.63-.22,3.17-.2c1.35-.08,5.91-.62,7.06-.77a17.54,17.54,0,0,1,2.81-.2.22.22,0,0,1,.22.23.23.23,0,0,1-.23.23h0a16.68,16.68,0,0,0-2.74.2c-1.19.16-5.71.69-7.09.77l-3.17.2L26,53.46a1.25,1.25,0,0,0-1,.63.45.45,0,0,1-.07.09s-.11.08-.29.21a4.49,4.49,0,0,0-.59.44,2.44,2.44,0,0,0-.19.93c0,.38-.08,2.14-.06,2.54s0,.77,0,1.18v.27c0,.4,0,2.87,0,3.69v.36a.21.21,0,0,0,.05.17s.06,0,.22,0v-.27a.23.23,0,0,1,.14-.22.21.21,0,0,1,.25.06,1.28,1.28,0,0,0,.5.21l1.55,0h.06l2.93.8a2.34,2.34,0,0,0,1.09.07c.22-.06.81-.23,1-.3a.39.39,0,0,0,.18-.22.23.23,0,0,1,.21-.15L33.7,64a.29.29,0,0,1,.18.07l.32.34.07,0,3.46,0,.25-.24a.24.24,0,0,1,.17-.07h8.68l.3,0L66.36,64h0a.24.24,0,0,1,.22.13,1.12,1.12,0,0,0,.27.3l3.49,0,.37-.34a.23.23,0,0,1,.15-.07l15.92-.09a.29.29,0,0,1,.22.15l.08.21a.84.84,0,0,0,.32.33c.14,0,.22-.32.23-.53a.24.24,0,0,1,.23-.22l2.61,0h0a.26.26,0,0,1,.22.15,3.29,3.29,0,0,0,.31.63c.07.11.15.18.36.05A2.74,2.74,0,0,0,92,64a.24.24,0,0,1,.19-.1l2.31,0a.21.21,0,0,1,.15,0s.68.54.87.67l0,0c.25.19.3.18.34.13a1.1,1.1,0,0,0,.09-.64.23.23,0,0,1,.05-.18.25.25,0,0,1,.18-.08h.17l2.56,0a.23.23,0,0,1,.19.1l.2.28,3.64,0,.22-.25a.29.29,0,0,1,.14-.08,1.6,1.6,0,0,0,1.45-1.59.83.83,0,0,0-.21-.66.26.26,0,0,1-.09-.16,5.17,5.17,0,0,1,0-.9c0-.46.06-1.95.06-2a.23.23,0,0,1,.23-.23h0a.22.22,0,0,1,.22.23c0,.06,0,1.52-.06,2a5.19,5.19,0,0,0,0,.72,1.38,1.38,0,0,1,.3.95,2.07,2.07,0,0,1-1.76,2l-.22.26a.25.25,0,0,1-.18.08l-3.86,0a.17.17,0,0,1-.19-.1l-.2-.27h0l-2.33,0a1.16,1.16,0,0,1-.22.75c-.34.39-.78.07-1-.07l0,0-.81-.64-2.11,0a2.8,2.8,0,0,1-.66.73.68.68,0,0,1-1-.17,4,4,0,0,1-.3-.58H88.12a1,1,0,0,1-.41.7.45.45,0,0,1-.41,0,1.19,1.19,0,0,1-.59-.58l0-.07L71,64.45l-.36.35a.25.25,0,0,1-.16.06l-3.66,0a.27.27,0,0,1-.13,0,1.87,1.87,0,0,1-.41-.38l-19.19.08-.3,0H38.25l-.18.19a.56.56,0,0,1-.34.12l-3.48,0a.56.56,0,0,1-.37-.15c-.06,0-.19-.19-.27-.27l-1.55,0a.78.78,0,0,1-.37.34c-.22.09-.94.29-1,.32A2.51,2.51,0,0,1,30.17,65.21Z"/><path class="cls-1" d="M104.81,58.81a.23.23,0,0,1-.23-.22l-.17-4.36a27.92,27.92,0,0,1-.21-2.84,1.88,1.88,0,0,0-1.9-1.85.24.24,0,1,1,0-.47,2.34,2.34,0,0,1,2.37,2.31,24.85,24.85,0,0,0,.2,2.8l.17,4.39a.22.22,0,0,1-.22.24Z"/><path class="cls-1" d="M42.62,52.67a.23.23,0,0,1-.23-.23V51.31a.53.53,0,0,1,.23-.41l0,0a1.77,1.77,0,0,1,.72-.41c.28-.05,4.74-.55,4.93-.56l5.5-.39,1.09,0s2.37-.46,2.68-.54a6.37,6.37,0,0,1,.92-.11,1.13,1.13,0,0,1,.78-.52c.4,0,2.87,0,3,0a.24.24,0,0,1,.12,0l.1.08,26.84.2.07-.09a.61.61,0,0,1,.46-.18c.38,0,4.52,0,4.7,0l.12,0,.61.42h.31a.23.23,0,0,1,.22.2l0,.06,3.78,0a.23.23,0,1,1,0,.46h0l-4,0a.22.22,0,0,1-.22-.19v-.07h-.19a.19.19,0,0,1-.14-.05l-.58-.4H89.86c-.1,0-.15,0-.15,0a.21.21,0,0,1-.23.23l-27.16-.19a.23.23,0,0,1-.2-.12c-.54,0-2.48,0-2.81,0s-.43.29-.48.39a.24.24,0,0,1-.19.11,7.76,7.76,0,0,0-1,.11c-.32.08-2.64.53-2.74.55l-1.14,0-5.47.39c-.19,0-4.59.5-4.87.55a1.56,1.56,0,0,0-.52.32l0,0a.18.18,0,0,0-.06.07v1.11A.23.23,0,0,1,42.62,52.67Z"/><path class="cls-1" d="M99.53,49.66h0l-3.92,0a.35.35,0,0,1-.34-.35.35.35,0,0,1,.35-.35h0l3.92,0a.35.35,0,1,1,0,.69Z"/><path class="cls-1" d="M99.53,49.66a.34.34,0,0,1-.34-.34.35.35,0,0,1,.34-.35l2.7,0h0a.35.35,0,0,1,0,.7H99.53Z"/><path class="cls-1" d="M30.17,65.07a2.93,2.93,0,0,1-.81-.11l-2.93-.8-1.52,0a1.46,1.46,0,0,1-.57-.19v.22c0,.1-.05.19-.16.19h0a.82.82,0,0,1-.59-.15.47.47,0,0,1-.14-.4v-.35c0-.9,0-3.3,0-3.69v-.28a11.37,11.37,0,0,0,0-1.16c0-.43,0-2.23.06-2.57a3,3,0,0,1,.26-1.12,3.59,3.59,0,0,1,.65-.49l.25-.18s0,0,0-.05A1.62,1.62,0,0,1,26,53.13c.47,0,2.08-.12,3.63-.23l3.17-.19c1.35-.08,5.92-.62,7.07-.77a18.42,18.42,0,0,1,2.79-.21v.19a18.21,18.21,0,0,0-2.76.2c-1.15.16-5.72.69-7.08.77l-3.17.2L26,53.32a1.45,1.45,0,0,0-1.15.69.25.25,0,0,1,0,.07l-.27.2a4,4,0,0,0-.62.46,2.7,2.7,0,0,0-.21,1c0,.38-.09,2.16-.07,2.56s0,.75,0,1.16v.28c0,.4,0,2.79,0,3.69v.35a.34.34,0,0,0,.09.27.67.67,0,0,0,.45.1v-.65l.16.17a1.27,1.27,0,0,0,.6.26l1.55,0,2.95.8a2.41,2.41,0,0,0,1.17.06s.78-.22,1-.3a.59.59,0,0,0,.26-.3l0-.06,1.9-.05,0,0,.34.34a.27.27,0,0,0,.14.06l3.48,0a.17.17,0,0,0,.12,0l.26-.27h8.72l.28,0,19.25-.08h.12l0,0a1.21,1.21,0,0,0,.36.38l3.59,0,.43-.41,16-.09.11.27a.83.83,0,0,0,.4.41.2.2,0,0,0,.15,0c.18-.1.25-.52.26-.65V64l2.75,0,0,.06a3.44,3.44,0,0,0,.33.66c.14.21.31.23.55.09a3.42,3.42,0,0,0,.63-.74l0-.05,2.39,0h0s.69.55.88.68l0,0c.26.19.4.25.53.11a1.19,1.19,0,0,0,.13-.76l0-.1h.28L99,64l.27.37,3.78,0,.28-.32h0a1.76,1.76,0,0,0,1.57-1.73,1,1,0,0,0-.26-.77l0,0v0a4.83,4.83,0,0,1,0-.87c0-.47.06-1.95.06-2h.19c0,.06,0,1.52-.07,2a6.85,6.85,0,0,0,0,.81,1.13,1.13,0,0,1,.3.88,1.93,1.93,0,0,1-1.69,1.91l-.29.33-3.95,0-.27-.37h-.12l-2.47,0a1.22,1.22,0,0,1-.18.8c-.26.3-.6,0-.78-.09l0,0c-.17-.12-.73-.56-.86-.66l-2.22,0a3,3,0,0,1-.67.75.53.53,0,0,1-.79-.13,3.27,3.27,0,0,1-.33-.64H88a1.05,1.05,0,0,1-.35.72.37.37,0,0,1-.31,0,1.12,1.12,0,0,1-.51-.5l-.06-.16L71,64.31l-.42.42-3.73,0h0a1.46,1.46,0,0,1-.41-.41h0l-19.26.08-.28,0H38.19l-.22.23a.34.34,0,0,1-.24.09l-3.48,0a.43.43,0,0,1-.28-.11l-.3-.32-1.69,0a.7.7,0,0,1-.34.35c-.22.09-1,.3-1,.31A1.49,1.49,0,0,1,30.17,65.07Z"/><path class="cls-1" d="M102.3,53.29a1.56,1.56,0,1,1,1.56-1.56A1.56,1.56,0,0,1,102.3,53.29Zm0-2.93a1.38,1.38,0,1,0,1.37,1.37A1.37,1.37,0,0,0,102.3,50.36Z"/><path class="cls-1" d="M99,64.15V64l4.46-.15a2.28,2.28,0,0,0,1.22-2.39h.18A2.46,2.46,0,0,1,103.46,64h0Z"/><rect class="cls-1" x="103.24" y="63.9" width="0.18" height="0.18"/><path class="cls-1" d="M51.42,61.48h0a2.56,2.56,0,0,1,0-5.11l29.79-.13a2.56,2.56,0,1,1,0,5.11ZM81.2,56.42l-29.78.13a2.37,2.37,0,1,0,0,4.74l29.79-.13a2.37,2.37,0,1,0,0-4.74Z"/><path class="cls-1" d="M48.93,59.14H41.87c-4.32,0-7.77-.1-11.2-.33a31.14,31.14,0,0,1-6.47-1.17l.05-.18a31.1,31.1,0,0,0,6.43,1.17c3.43.22,6.88.33,11.19.33h7.06Z"/><path class="cls-1" d="M87,60.68h0a1.94,1.94,0,0,1,0-3.87l8.61-.08a1.94,1.94,0,1,1,0,3.87Zm8.61-3.76L87,57a1.75,1.75,0,1,0,0,3.49l8.61-.08a1.75,1.75,0,1,0,0-3.49Z"/><polygon class="cls-1" points="83.7 58.95 83.69 58.76 85.19 58.7 85.19 58.88 83.7 58.95"/><path class="cls-1" d="M24.34,63.75h-.19V61.34c0-.19,0-1.65,0-2.91,0-1,0-1.81,0-1.9s0-.05,0-.09a2.88,2.88,0,0,1,.52-2.1c.66-.61,2.78-1,3.78-1h.23a37.23,37.23,0,0,1,7,.1l1.31.33a19.48,19.48,0,0,0,4.81.84c1.56,0,5.35,0,7.85-.08l2.25,0,4.39,0,6.25,0H86.07c.9,0,6.92-.16,10.52-.25l2.71-.06H100V51.32a2.22,2.22,0,0,1,2.32-2.11,2.18,2.18,0,0,1,2.23,2.17,23.89,23.89,0,0,0,.21,2.83l.17,4.46-7.4.17v-.18l7.22-.17-.17-4.26a25.52,25.52,0,0,1-.21-2.84,2,2,0,0,0-2-2,2,2,0,0,0-2.13,1.92v3H99.3l-2.7.07c-3.6.09-9.63.24-10.53.24H62.55l-6.25,0-4.39,0-2.24,0c-2.51,0-6.31.09-7.86.07A19.72,19.72,0,0,1,37,53.94c-.46-.12-.89-.23-1.3-.32a37.57,37.57,0,0,0-7-.11l-.23,0a7.94,7.94,0,0,0-3.67.95c-.52.48-.47,1.59-.45,2v.1c0,.09,0,.93,0,1.89,0,1.27,0,2.73,0,2.92Z"/><path class="cls-1" d="M55.81,63.91c-.84,0-14.24,0-16.11-.06l-15.45-.29v-.19l15.46.29c1.86,0,15.26.06,16.1.06l9.67-.07,12.41-.08c1.42,0,9.46-.08,9.54-.08v.18c-.08,0-8.12.08-9.54.08l-12.41.09Z"/><polygon class="cls-1" points="90.33 63.62 88 63.59 88 63.41 90.33 63.43 90.33 63.62"/><rect class="cls-1" x="90.95" y="63.38" width="4.69" height="0.19" transform="translate(-0.31 0.45) rotate(-0.28)"/><path class="cls-1" d="M96.11,63.58v-.19l6.25-.06h0c1.12,0,1.74-.68,1.75-1.91,0-1.49,0-1.89,0-2.32,0-.16,0-.32,0-.54h.18c0,.22,0,.37,0,.53,0,.43,0,.84,0,2.33,0,1.33-.71,2.1-1.92,2.1h0Z"/><rect class="cls-1" x="66.42" y="64.14" width="4.5" height="0.19" transform="translate(-0.35 0.37) rotate(-0.31)"/><rect class="cls-1" x="29.14" y="61.47" width="0.18" height="5.38" transform="translate(-36.1 90.66) rotate(-87.59)"/><rect class="cls-1" x="35.84" y="62.04" width="0.19" height="4.44" transform="translate(-28.87 99.19) rotate(-89.12)"/><path class="cls-1" d="M30.35,65l-.1-.15a2.57,2.57,0,0,0,.39-.72l.18.07A2.6,2.6,0,0,1,30.35,65Z"/><path class="cls-1" d="M54,60.78l-2.63-.07a1.73,1.73,0,0,1-1.68-1.59V59H50v-.13h-.29v-.1a1.69,1.69,0,0,1,1.68-1.49l2.78,0,0,.12A10.08,10.08,0,0,0,54,60.68Zm-4.11-1.57a1.53,1.53,0,0,0,1.49,1.32l2.42.06a11.19,11.19,0,0,1,.11-3.12H51.41a1.5,1.5,0,0,0-1.48,1.23h.27v.5Z"/><path class="cls-1" d="M56.13,60.93H54.24v-.08a21.71,21.71,0,0,1,.06-3.46V57.3h.09l7.22.1h.15a.81.81,0,0,1,.51.13,6.16,6.16,0,0,1,.92.74l0,0,0,0a7.81,7.81,0,0,0,0,1.61V60l-1.14.82-5.9-.05Zm-1.73-.2H56l0-.14h.07l5.91,0,1-.71a8.27,8.27,0,0,1,0-1.57,6.32,6.32,0,0,0-.84-.68.56.56,0,0,0-.42-.1H61.6c-.22,0-6.33-.1-7.13-.11A21.58,21.58,0,0,0,54.4,60.73Z"/><path class="cls-1" d="M56.1,60.82h-.18V60.4c0-1.11,0-1.84,0-2s-.29-.2-.35-.2h-1c-.08,0-.14.14-.16.21l-.18,0s.1-.34.34-.34l.68,0h.31c.24,0,.51.1.54.37s0,1.36,0,2Z"/><path class="cls-1" d="M51.65,60.74l0-.18a1.75,1.75,0,0,0,1.11-1.63,1.54,1.54,0,0,0-1.05-1.48l.05-.17a1.7,1.7,0,0,1,1.19,1.65A1.93,1.93,0,0,1,51.65,60.74Z"/><path class="cls-1" d="M67.74,59.81H63.1v-.18h4.48a4.09,4.09,0,0,0,0-.92l-4.48,0v-.19h4.63l0,.07a3.62,3.62,0,0,1,0,1.13Z"/><path class="cls-1" d="M72.79,61.16a5.24,5.24,0,0,1-2-.54l-1.43-.46-1.34,0a.51.51,0,0,1-.32-.15.34.34,0,0,1-.09-.28l.18,0a.18.18,0,0,0,0,.13A.31.31,0,0,0,68,60h0l1.36,0h0l1.45.47a4.68,4.68,0,0,0,2,.52l5.79-.12H79a26.37,26.37,0,0,0,3-.11.85.85,0,0,0,.71-.87.56.56,0,0,1,0-.07,20.46,20.46,0,0,0-.08-2.27C82.62,57,82,57,81.93,57l-6.32.15a21.23,21.23,0,0,0-3,.13,23.43,23.43,0,0,0-3.2,1.16h0l-1.47,0-.15.2-.15-.1.2-.29,1.55-.05a24.41,24.41,0,0,1,3.22-1.17,25.05,25.05,0,0,1,3.08-.13l6.32-.15a.9.9,0,0,1,.94.73,20.57,20.57,0,0,1,.07,2.32v.06a1.07,1.07,0,0,1-.86,1A27,27,0,0,1,79,61h-.35l-5.8.13Z"/><path class="cls-1" d="M60.46,60.14a.29.29,0,0,1-.29-.29V58.5a.29.29,0,0,1,.58,0v1.35A.29.29,0,0,1,60.46,60.14Zm0-1.74a.1.1,0,0,0-.1.1v1.35a.1.1,0,0,0,.2,0V58.5A.1.1,0,0,0,60.46,58.4Z"/><path class="cls-1" d="M87.3,64.45s-.11,0-.17-.26l-.29,0,0-.19.45-.05V64a17.64,17.64,0,0,0,.16-1.92h-.09v-.07a10.81,10.81,0,0,1-.17-1.37v0a.2.2,0,0,1-.09-.12c0-.24,0-.3,0-.31a10,10,0,0,1-.07-1.7.65.65,0,0,1,.63-.53.76.76,0,0,1,.77.7c0,.42,0,1.62,0,1.67v0l-.06.13,0,1.57h0a10.37,10.37,0,0,1-.18,2l-.18,0A12.21,12.21,0,0,0,88,62V62h0l0-1.48.06-.13c0-.16,0-1.26,0-1.65a.58.58,0,0,0-.58-.51.47.47,0,0,0-.45.37,9.21,9.21,0,0,0,.07,1.62s0,.07.06.32a.24.24,0,0,1,.1.18,10.38,10.38,0,0,0,.15,1.26h.11V62a14.56,14.56,0,0,1-.16,2.07c0,.19,0,.34-.14.34Z"/><path class="cls-1" d="M91.29,64.57c-.07,0-.16,0-.23-.18s-.13-.32-.1-.37l0,0H91l.06,0h.8l-.09.14C91.76,64.21,91.52,64.57,91.29,64.57Zm-.12-.38.06.12s0,.08.06.08.17-.1.26-.2Z"/><path class="cls-1" d="M95.74,64.51s-.13,0-.52-.39L95.06,64h.77V64c.08.38,0,.44,0,.46h-.06Z"/><path class="cls-1" d="M90.44,64.09a5.21,5.21,0,0,1-.21-2h-.11l-.07-1.43a2.16,2.16,0,0,1-.11-.71c0-.15,0-.31,0-.45a3.55,3.55,0,0,1,0-1l0-.05a.6.6,0,0,1,.66-.45.78.78,0,0,1,.57.17.86.86,0,0,1,.18.68s-.08,1.29-.09,1.52l0,.27,0,0-.07,1.44-.18,0a13.48,13.48,0,0,0,.18,1.95l-.18,0A15.1,15.1,0,0,1,90.76,62v-.08l.19,0L91,60.53l.06,0,0-.18c0-.22.09-1.45.09-1.5a.76.76,0,0,0-.13-.55.59.59,0,0,0-.44-.12c-.36,0-.41.14-.49.33l0,.06a3.56,3.56,0,0,0,0,1c0,.15,0,.3,0,.45,0,.51.08.63.09.63l0,0v0l.06,1.29h.13V62a5.21,5.21,0,0,0,.19,2Z"/><polygon class="cls-1" points="91.73 64.19 91.73 64 92.19 63.98 92.2 64.17 91.73 64.19"/><polygon class="cls-1" points="95.28 64.15 94.5 64.13 94.51 63.95 95.29 63.96 95.28 64.15"/><path class="cls-1" d="M95.66,64.09c-.12-.78-.38-2.33-.46-2.56A8.63,8.63,0,0,1,95.05,60a.68.68,0,0,0-.1-.25,1,1,0,0,1-.15-.38c0-.14,0-.7,0-1v-.24a.6.6,0,0,1,.12-.34.27.27,0,0,1,.19-.08h.59a.45.45,0,0,1,.42.45V59.4a3.53,3.53,0,0,1-.11.45,5.43,5.43,0,0,0,0,.82v.2a12.47,12.47,0,0,0,.08,1.92c0,.33.12.64.16.86a2.56,2.56,0,0,1,.07.36l-.19,0c0-.05,0-.18-.06-.34s-.11-.53-.17-.87a13.22,13.22,0,0,1-.08-2v-.18a3.77,3.77,0,0,1,0-.9,2.07,2.07,0,0,0,.09-.4h0s0-.88,0-1.2a.26.26,0,0,0-.24-.27h-.58s0,0,0,0a.32.32,0,0,0-.07.2v.25c0,.31,0,.88,0,1a.68.68,0,0,0,.12.3.76.76,0,0,1,.13.34,8.34,8.34,0,0,0,.13,1.43c.11.3.46,2.5.48,2.59Z"/><path class="cls-1" d="M93.7,59.35h-.85L93,58.27h.84Zm-.65-.19h.48l.07-.7h-.48Z"/><polygon class="cls-1" points="93.85 58.46 92.98 58.46 92.8 58.1 93.67 58.1 93.85 58.46"/><path class="cls-1" d="M67,54.35H63v-.22c-1.13,0-12.26-.12-14.76-.17s-3.47-.16-3.48-.16c-.31,0-1.94,0-2.22-.4a1,1,0,0,1-.17-.77l0-.12.11-.11V51.31a.44.44,0,0,1,.18-.31l0,0a1.63,1.63,0,0,1,.66-.37c.28-.06,4.72-.55,4.91-.56l5.49-.39,1.09,0,2.71-.54a6.93,6.93,0,0,1,1-.12,1.12,1.12,0,0,1,.72-.51c.4,0,2.86,0,3,0h0a.3.3,0,0,1,.09.1l27,.2a.31.31,0,0,1,.08-.13.47.47,0,0,1,.37-.14c.38,0,4.51,0,4.69,0h0s.44.28.64.44h.44l0,.26,3.9,0v0h0l.05,5-12.25.11L67,54.12Zm-.23-.42h.11l20.54.24,12.06-.11,0-4.65-3.9,0-8.34-.14c-.09,0-9-.06-10.19,0l-2.06,0c-3.58.08-10.24.23-10.87.17l-1.29-.14c-.83-.09-1.77-.19-1.95-.19l-2.21.07a8.38,8.38,0,0,0-1,.12c-.32.08-2.64.53-2.74.55l-1.11,0-5.48.39c-.19,0-4.61.5-4.88.56a1.4,1.4,0,0,0-.58.34l0,0a.22.22,0,0,0-.11.16v1.17l-.13.12v0a.75.75,0,0,0,.14.65c.17.25,1.36.33,2.07.32,0,0,.86.09,3.47.15S63,54,63.12,54h.09v.22h3.6Zm-5.94-5c.19,0,1.1.1,2,.2l1.28.13c.62.06,7.27-.09,10.85-.17L77,49c1.19,0,10.1,0,10.19,0l8.31.14v-.07h-.34l0,0c-.17-.13-.54-.37-.63-.43H89.85c-.26,0-.28.15-.28.18v.09h-.1l-27.16-.19h-.09v-.12c-.31,0-2.56,0-2.92,0a.73.73,0,0,0-.49.31Z"/><path class="cls-1" d="M99.55,53.28a25.33,25.33,0,0,0-5.47-1.64c-2.15-.22-7.82-.41-9.3-.43l-10.37-.14C73,51.05,63.65,51,62.15,51s-7.07.14-7.74.16-7.7.66-9,.87-2.7.48-2.71.48l0-.18s1.35-.27,2.72-.48S53.71,51,54.41,51l7.74-.15c1.5,0,10.86,0,12.27.06L84.79,51c1.48,0,7.15.22,9.31.43a25.14,25.14,0,0,1,5.52,1.66Z"/><path class="cls-1" d="M42.65,51.4l0-.18s1.12-.27,1.9-.37,9.67-.76,10.72-.78,9.92-.31,10-.31l14.55-.16,12.84.09,7,.09V50l-7-.09-12.84-.08-14.54.15c-.09,0-9,.29-10,.31s-9.87.68-10.69.78S42.66,51.4,42.65,51.4Z"/><rect class="cls-1" x="92.24" y="46.06" width="0.19" height="5.71" transform="translate(40.5 139.66) rotate(-88.18)"/><polygon class="cls-1" points="99.53 49.41 99.53 49.23 102.24 49.21 102.24 49.39 99.53 49.41"/><path class="cls-1" d="M36.65,87.85l-1.23,0h-.08l-.05,0a.41.41,0,0,1-.19-.39.31.31,0,0,1,0-.09.54.54,0,0,1-.19-.25l0,0a.56.56,0,0,1-.11-.55l.82-4.81.38-.34,2.81-16.92.46.08L36.41,81.54l-.38.35-.79,4.64v0l.1,0v.31a.14.14,0,0,0,.08.1l.16.06v.17l0,.19c.66,0,1.35,0,1.46,0l.21-.07.45-.35c.24-.2.65-.53.71-.6a1.23,1.23,0,0,0,0-.28v-.14l3.14-2.1h.07a8.64,8.64,0,0,0,1-.11,2.13,2.13,0,0,0,.77-.7,3.4,3.4,0,0,0,.18-.3c.26-1.44.64-3.55.71-4h-.29l2.46-14.29.46.08-2.38,13.8a.51.51,0,0,1,.13.09.41.41,0,0,1,.09.28c0,.18-.61,3.47-.73,4.13l0,.06a2.27,2.27,0,0,1-.25.42,2.19,2.19,0,0,1-1,.86,6.94,6.94,0,0,1-1,.12l-2.81,1.88a.71.71,0,0,1-.14.51l-.75.63-.56.42-.29.08A2.17,2.17,0,0,1,36.65,87.85Z"/><path class="cls-1" d="M100,87.48l-.07-.08a4.17,4.17,0,0,1-.37-.49s0-.11-.52-2.43c0-.17-.17-.86-.2-1a1.45,1.45,0,0,1-.19-.48c-.06-.29-.78-4.25-.83-4.54a.32.32,0,0,1,0-.19A.49.49,0,0,1,98,78L95.33,64.21l.46-.09,2.77,14.16-.18.07-.1,0c.11.56.77,4.2.82,4.46a.86.86,0,0,0,.14.34l0,0,0,.06s.16.9.2,1.09c.22,1.08.47,2.24.5,2.35l.23.28h1.67V86.8l.14-.29a.42.42,0,0,0,.11-.32s-.75-4-.85-4.58a.51.51,0,0,0-.1-.27l-.22.08-.71-3.81L97.7,64.24l.45-.09,3.18,16.74.07,0a.84.84,0,0,1,.34.61c.1.56.84,4.56.84,4.56a.79.79,0,0,1-.17.66l-.06.14,0,.58Z"/><path class="cls-1" d="M38.4,83.37l.06-.5c0-.27.08-.67.1-.82l-.08,0L38.3,82l1.45-8.82L41.19,65h-.31l.07-.67h3.79L42.31,78.45l-.07,0a5.94,5.94,0,0,0-.57,2.31V81l-.18,0a2.06,2.06,0,0,0-.41.57l0,0Zm.41-1.7A.4.4,0,0,1,39,82c0,.07,0,.24,0,.42l1.71-1.12a2,2,0,0,1,.54-.68,6.25,6.25,0,0,1,.65-2.43l2.31-13.45h-2.5L40.2,73.21Z"/><polygon class="cls-1" points="38.36 82.25 35.9 81.77 35.93 81.59 38.3 82.05 38.58 81.77 38.71 81.91 38.36 82.25"/><rect class="cls-1" x="35.08" y="84.75" width="5.51" height="0.19" transform="translate(-52.87 104.93) rotate(-78.45)"/><path class="cls-1" d="M38.71,86.08l-.18,0a9.4,9.4,0,0,0,.27-1.2.68.68,0,0,0-.14-.63l.11-.15a.83.83,0,0,1,.21.81A12.41,12.41,0,0,1,38.71,86.08Z"/><path class="cls-1" d="M41.65,84.15l-.1-.16,1-.65c.26-2,.31-2,.36-2l.1.16,0-.08.08,0c0,.11-.22,1.26-.31,2v0Z"/><path class="cls-1" d="M42.53,84.07l0-.19a.54.54,0,0,0,.4-.48l.35-1.92.38-.27a9,9,0,0,1,.57-2.45l.21-.14.1.15-.2.14a11.11,11.11,0,0,0-.5,2.37v0l-.39.27-.32,1.85A.75.75,0,0,1,42.53,84.07Z"/><polygon class="cls-1" points="40.91 81.55 40.82 81.39 41.63 80.93 42.01 78.3 42.19 78.33 41.8 81.05 40.91 81.55"/><polygon class="cls-1" points="38.45 84.41 38.6 82.89 38.78 82.91 38.67 84.04 42.95 81.31 41.7 81.08 41.73 80.9 43.45 81.21 38.45 84.41"/><polygon class="cls-1" points="43.48 81.01 43.3 80.97 46.2 64.61 44.47 64.61 44.47 64.42 46.42 64.42 46.41 64.53 43.48 81.01"/><rect class="cls-1" x="46.31" y="64.41" width="0.31" height="0.19" transform="translate(-3.97 3.05) rotate(-3.61)"/><polygon class="cls-1" points="41.15 64.61 39.02 64.52 39.02 64.34 41.16 64.42 41.15 64.61"/><polygon class="cls-1" points="38.24 82.19 38.11 81.93 38.12 81.89 40.93 64.85 41.11 64.88 38.31 81.9 38.41 82.1 38.24 82.19"/><path class="cls-1" d="M98.6,81.94a.38.38,0,0,1,.05-.24.44.44,0,0,1,.32-.17c.33,0,2.13-.51,2.14-.51l0,.18c-.08,0-1.82.46-2.17.51a.37.37,0,0,0-.19.09.14.14,0,0,0,0,.1Z"/><rect class="cls-1" x="98.55" y="78.1" width="0.18" height="3.55" transform="translate(-13.45 20.33) rotate(-11.02)"/><path class="cls-1" d="M195.24,53.68l-.06,0s-.39-.24-.61-.4l-.49,0L194,53l-3.9.1L190,48l.1-.17,0-.71-.05-.3.37.05c.1,0,13.24-.22,14.57-.22,1.16,0,10.85-.27,12.48-.32v-.16l3.51-.12v.21c1.43,0,9.12-.15,13.34-.15,1.47,0,2.36,0,2.71.05l.33,0a9.27,9.27,0,0,1,2.74.57l3.44-.11h.39c1.61,0,1.82.29,1.9.4a1.11,1.11,0,0,1,.22.85v.17l-.11.1,0,1a.54.54,0,0,1-.21.42l0,0a1.72,1.72,0,0,1-.69.42c-.27.06-4.53.67-4.77.7l-5.34.55-1.06,0h0s-2.29.53-2.59.62-.67.11-.88.14a1.16,1.16,0,0,1-.75.53c-.39,0-2.79.11-2.89.11h-.07l-.05,0a.24.24,0,0,1-.1-.08l-26.09.61-.06.09a.65.65,0,0,1-.45.19c-.38,0-4.4.14-4.57.14Zm-.52-.89.06.05c.15.11.45.3.58.38l4.47-.14c.1,0,.14,0,.14,0l0-.25h.24l26.42-.61h.23v.12c.57,0,2.38-.08,2.69-.11s.42-.32.46-.4l.06-.11h.12a6.88,6.88,0,0,0,.92-.14c.31-.09,2.55-.6,2.65-.62l1.11-.07,5.31-.54c.2,0,4.48-.64,4.71-.69a1.44,1.44,0,0,0,.48-.32l.05,0a.21.21,0,0,0,0-.07l0-1.19.13-.14a.7.7,0,0,0-.13-.54,3.21,3.21,0,0,0-1.53-.2h-.38l-3.52.11h0a8.88,8.88,0,0,0-2.67-.56l-.33,0c-.33,0-1.23-.05-2.67-.05-4.63,0-13.47.16-13.56.16h-.22v-.2l-2.58.09v.16h-.24c-.11,0-11.45.32-12.69.32h0c-1.27,0-12.86.19-14.45.21l0,.64-.1.16.12,4.5,3.85-.09,0,.26Z"/><path class="cls-1" d="M190.22,48.16V48l14.16-.3c.46,0,3.57-.07,7.16-.13,5.48-.1,12.3-.22,12.82-.25s5.1-.09,8.75-.13l4.09-.06a25.87,25.87,0,0,0,2.8-.21l0,.18c-.5.1-2.09.19-2.84.22l-4.08.05c-3.46,0-8.2.1-8.75.13s-7.35.15-12.83.25l-7.16.13C203.22,47.9,190.35,48.16,190.22,48.16Z"/><path class="cls-1" d="M203,50.57c-2.24,0-6,0-7.63-.16A23.81,23.81,0,0,1,190,48.93l.06-.17a23.92,23.92,0,0,0,5.38,1.47c2.07.15,7.6.17,9,.15l10.09-.18c1.45,0,10.48-.24,11.92-.3l7.52-.39c.67,0,7.47-.88,8.77-1.13s2.61-.55,2.62-.55l.05.18s-1.31.3-2.63.55-8.12,1.1-8.8,1.14-6,.32-7.52.38-10.48.28-11.93.31l-10.09.17Z"/><path class="cls-1" d="M190.12,52.23V52l6.77-.11,12.49-.3L223.51,51c.09,0,8.72-.55,9.73-.6s9.59-1,10.37-1.09a14.85,14.85,0,0,0,1.82-.42l0,.18a17.06,17.06,0,0,1-1.84.43c-.78.12-9.35,1-10.39,1.09s-9.64.59-9.73.6l-14.13.58-12.49.3Z"/><path class="cls-1" d="M194,52.7v-.18l8.19-.11c.08,0,8.74-.21,9.9-.27L214,52c3.51-.18,10-.53,10.65-.49l1.23.1c.82.06,1.74.14,1.92.13l2.15-.14v.18c-.07,0-1.86.14-2.15.15s-1.08-.07-1.95-.14l-1.23-.1c-.61,0-7.37.33-10.62.5l-1.92.1c-1.16.05-9.82.26-9.91.26Z"/><path class="cls-1" d="M191.56,47.66l-.36-.3,1.9-2.29.06,0,.64-.25c.31-.46,2.29-3.45,2.47-3.74a.26.26,0,0,0,0-.13l-.21-.13.14-.2,14.7-22,.12-.19.1.06c.31-.47,1.3-2,1.46-2.26s0-.52-.06-.6l-.06-.11.06-.11a7,7,0,0,0,.41-.83c.11-.3,1-2.43,1-2.52l.59-.95c.07-.11,1.9-3.4,2.6-4.65.1-.18,2.06-4,2.15-4.26a1.41,1.41,0,0,0,0-.58v0c0-.07,0-.09,0-.09l-1-.65,0-.18a.66.66,0,0,0-.52-.21,4.52,4.52,0,0,0-1.26,1.45l-2,3a8.63,8.63,0,0,0-2,1.87l-.22.26c-1.05,1.25-9.16,13.21-9.24,13.33l-.13.19-.17-.11-1.41,2.16.14.09-.13.19c-.26.39-6.36,9.61-7,10.58s-8.16,12-8.24,12.08l-.06.07L185,47l-.36-.27,1.11-1.48c.05-.09,7.53-11.1,8.22-12.07s6-9,6.91-10.37l-.14-.09,1.91-2.94.18.12C203.91,18.29,211,7.9,212,6.7l.21-.26a9.4,9.4,0,0,1,2-1.92l1.89-2.87c.31-.49,1.11-1.64,1.64-1.65a1.11,1.11,0,0,1,.81.31l.13.1,0,.15.85.56a.54.54,0,0,1,.22.42v.05a1.65,1.65,0,0,1-.06.81c-.1.25-2.06,4.12-2.16,4.3L215,11.39c-.05.07-.56.9-.56.9h0s-.88,2.17-1,2.47a6.62,6.62,0,0,1-.39.8,1.08,1.08,0,0,1,0,.92c-.19.34-1.51,2.34-1.57,2.43l0,.05-.06,0a.21.21,0,0,1-.12,0l-14.52,21.7a.3.3,0,0,1,0,.1.62.62,0,0,1-.1.48c-.19.32-2.41,3.67-2.51,3.81l0,.06-.06,0-.68.27Z"/><path class="cls-1" d="M185.94,47l-.15-.1c.07-.12,8-11.64,8.67-12.62.25-.38,2-2.94,4-5.9,3.08-4.55,6.92-10.21,7.2-10.66s3-4.43,5-7.32l2.25-3.29a26.88,26.88,0,0,0,1.43-2.41l.17.07A25.76,25.76,0,0,1,213,7.16c-.16.25-1.08,1.59-2.25,3.3-2,2.88-4.69,6.83-5,7.31s-4.12,6.11-7.2,10.67l-4,5.9C194,35.31,186,46.84,185.94,47Z"/><path class="cls-1" d="M187.21,46.73l-.1-.16A23.42,23.42,0,0,0,191.4,43c1.31-1.61,4.51-6.12,5.32-7.32l5.66-8.35c.81-1.2,5.82-8.7,6.61-9.93s3.64-5.78,4-6.37,3.57-6.63,4.12-7.83,1-2.45,1.06-2.46l.17.07s-.51,1.24-1.06,2.47-3.74,7.22-4.13,7.85-3.22,5.13-4,6.37-5.8,8.73-6.62,9.94l-5.66,8.34c-.81,1.21-4,5.72-5.33,7.33A24.52,24.52,0,0,1,187.21,46.73Z"/><path class="cls-1" d="M190.61,47.49l-.15-.11,3.17-4.58,6.94-10.38,7.65-11.9c0-.07,4.56-7.45,5.1-8.3s4.73-8.4,5.08-9.12a16.76,16.76,0,0,0,.7-1.72l.18.06s-.37,1.05-.71,1.75-4.54,8.25-5.09,9.13-5.06,8.22-5.1,8.3l-7.65,11.9-6.94,10.39Z"/><path class="cls-1" d="M191.41,47.29l-.16-.11,5.82-8.43c.05-.07,4.86-7.28,5.48-8.25l1-1.63c1.86-3,5.33-8.51,5.72-9l.8-1c.52-.62,1.11-1.34,1.21-1.48l1.11-1.84.16.09c0,.07-1,1.61-1.12,1.85s-.67.84-1.22,1.5c-.31.38-.61.73-.79,1-.39.48-4,6.22-5.71,9l-1,1.62c-.63,1-5.44,8.19-5.49,8.26Z"/><path class="cls-1" d="M184.45,52.16c-.44-.56-10.91-13.66-11.63-14.61s-6.76-8.46-7.78-9.74l-.12.1L162.7,25.2l.17-.13c-1.2-1.52-9-11.4-9.78-12.72l-.19-.29a9.27,9.27,0,0,1-1.2-2.52l-2.16-2.67c-.37-.45-1.23-1.56-1.08-2.07a1.09,1.09,0,0,1,.55-.68l.14-.09h.15l.79-.64a.56.56,0,0,1,.46-.08h.06a1.67,1.67,0,0,1,.75.3c.21.17,3.3,3.22,3.44,3.37l3.66,3.93.69.8h0s1.8,1.51,2,1.7a5.41,5.41,0,0,1,.64.62,1.07,1.07,0,0,1,.88.28c.27.28,1.78,2.15,1.84,2.23l0,.05v.06a.62.62,0,0,1,0,.13l16.26,20.42h.1a.61.61,0,0,1,.43.24c.24.28,2.76,3.41,2.87,3.55l0,.05v.07s0,.45.05.72l.31.38-.18.2,1.79,2.24-.36.29-2-2.56.17-.19L183.9,42v-.08c0-.19,0-.55-.05-.7-.34-.42-2.59-3.22-2.81-3.48-.06-.07-.1-.09-.12-.08l-.18.16-.14-.2c-.24-.29-16.29-20.47-16.45-20.67l-.14-.18.09-.07c-.36-.44-1.5-1.85-1.72-2.08a.78.78,0,0,0-.59-.12l-.12,0-.09-.09a5.82,5.82,0,0,0-.66-.65c-.26-.2-2-1.68-2.1-1.74s-.66-.77-.72-.84l-3.64-3.9c-.13-.15-3.21-3.18-3.4-3.34a1.35,1.35,0,0,0-.54-.19l-.06,0c-.06,0-.09,0-.09,0l-.93.75-.18,0h0a.62.62,0,0,0-.35.43,4.37,4.37,0,0,0,1,1.63l2.22,2.78a9.12,9.12,0,0,0,1.17,2.46l.19.29c.87,1.38,9.8,12.75,9.89,12.86l.14.18-.16.13,1.63,2,.13-.1.15.18c.29.37,7.22,9,7.93,9.93s11.52,14.46,11.63,14.6Z"/><path class="cls-1" d="M184.37,50.49,174,37.41l-4.34-5.51c-3.43-4.36-7.69-9.78-8-10.19s-3.13-4-5.36-6.85l-2.54-3.26a27,27,0,0,0-1.87-2.1l.13-.14a27.06,27.06,0,0,1,1.88,2.12c.19.23,1.23,1.57,2.55,3.27,2.11,2.71,5,6.43,5.35,6.84s4.62,5.84,8.05,10.2l4.33,5.5c.74.91,10.28,13,10.38,13.08Z"/><path class="cls-1" d="M184.4,48.65s-1.84-3.92-3-5.65-4.45-6.16-5.35-7.3l-6.23-7.93c-.75-1-6.49-8.16-7.45-9.31s-4.41-5.25-4.85-5.76-5.22-5.42-6.2-6.31-2-1.75-2-1.76l.12-.14s1,.86,2,1.77,5.78,5.8,6.22,6.32,3.89,4.6,4.85,5.76,6.53,8.14,7.46,9.32l6.23,7.93c.89,1.14,4.22,5.56,5.36,7.31s2.95,5.64,3,5.67Z"/><path class="cls-1" d="M185.21,45.15,181.9,40.8,174.12,31l-9-10.9c-.06-.07-5.71-6.61-6.36-7.39s-6.57-7.06-7.13-7.61S150.19,4,150.18,3.94l.12-.15s.89.67,1.45,1.21,6.47,6.82,7.15,7.62,6.29,7.32,6.35,7.39l9,10.91L182,40.69,185.35,45Z"/><path class="cls-1" d="M184.12,42.75l-5-6.45c-.06-.07-5.46-6.85-6.2-7.74l-1.18-1.4c-2.29-2.7-6.54-7.72-6.89-8.25l-.66-1c-.45-.7-.95-1.49-1.06-1.62s-1.4-1.62-1.41-1.63l.14-.12c0,.06,1.23,1.41,1.41,1.63s.61.9,1.07,1.64l.67,1c.34.52,4.75,5.73,6.87,8.24L173,28.44c.75.9,6.15,7.67,6.2,7.74l5,6.46Z"/><polygon class="cls-1" points="199.97 52.96 194.42 52.95 194.42 52.76 199.97 52.77 199.97 52.96"/><polygon class="cls-1" points="224.66 51.73 224.64 51.55 232.91 51.01 232.92 51.19 224.66 51.73"/><rect class="cls-1" x="226.42" y="51.5" width="5.18" height="0.18" transform="translate(-2.82 14.67) rotate(-3.65)"/><polygon class="cls-1" points="226.3 52.26 226.25 51.8 226.43 51.78 226.48 52.24 226.3 52.26"/><polygon class="cls-1" points="189.83 50.28 189.83 50.09 190.06 50.08 190.06 50.27 189.83 50.28"/><rect class="cls-1" x="223.94" y="52.24" width="2.21" height="0.18" transform="translate(-1.28 5.84) rotate(-1.48)"/><polygon class="cls-1" points="229.6 53.44 229.24 53.25 229.32 53.09 229.63 53.25 231.69 52.85 231.73 53.03 229.6 53.44"/><path class="cls-1" d="M229.4,52.58c-1,0-1.7,0-1.72,0v-.19a27.27,27.27,0,0,0,3.92-.05l0,.18A21.15,21.15,0,0,1,229.4,52.58Z"/><polygon class="cls-1" points="236.51 79.84 236.11 79.65 236.19 79.48 236.24 79.51 229.5 52.98 229.68 52.93 236.51 79.84"/><polygon class="cls-1" points="237.4 85.04 236.1 79.98 236.35 79.59 238.6 78.96 238.65 79.13 236.47 79.75 236.31 80.01 237.58 85 237.4 85.04"/><path class="cls-1" d="M236.52,82.57l-.68-.47,0-.06a.46.46,0,0,1,.28-.27L235.73,80l.18,0Zm-.45-.53.16.1,0-.19A.2.2,0,0,0,236.07,82Z"/><path class="cls-1" d="M236.14,83.73s-.23-1-.27-1.19a1.6,1.6,0,0,1,0-.42l-4.52-3.07.1-.16L236,82v0a2.67,2.67,0,0,0,0,.43c0,.23.27,1.17.27,1.18Z"/><polygon class="cls-1" points="236.12 81.91 231.2 78.66 231.31 78.51 236.22 81.76 236.12 81.91"/><path class="cls-1" d="M232.48,81.27l-.84-.59v0a11.16,11.16,0,0,0-.37-1.87,1.16,1.16,0,0,0-.37-.31h0v0a2.64,2.64,0,0,1-.14-.46,6.39,6.39,0,0,0-.64-2.06,1.59,1.59,0,0,1-.38-.33l.15-.11a2.2,2.2,0,0,0,.34.3,6.14,6.14,0,0,1,.71,2.16,1.83,1.83,0,0,0,.12.39,1.36,1.36,0,0,1,.42.36,10.71,10.71,0,0,1,.39,1.91l.78.54Z"/><path class="cls-1" d="M232,81.23a.66.66,0,0,1-.43-.23,7.42,7.42,0,0,1-.57-1.83.73.73,0,0,0-.33-.48l-.06,0a.85.85,0,0,1-.23-.34s-.44-1.8-.51-2.09-.35-.36-.35-.36l.06-.17a.8.8,0,0,1,.47.49c.07.28.51,2.06.51,2.07a.65.65,0,0,0,.16.25l.06,0a.88.88,0,0,1,.4.59,7,7,0,0,0,.53,1.74.46.46,0,0,0,.31.18l.4,0v.19l-.4,0Z"/><polygon class="cls-1" points="233.72 78.75 232.65 78.14 231.06 78.53 231.02 78.35 232.68 77.95 233.81 78.59 233.72 78.75"/><polygon class="cls-1" points="232.58 78.04 231.93 75.08 232.11 75.04 232.76 78 232.58 78.04"/><polygon class="cls-1" points="230.03 75.85 224.09 52.43 224.27 52.39 230.21 75.81 230.03 75.85"/><path class="cls-1" d="M238.09,85.65h0a.38.38,0,0,1-.25-.09.65.65,0,0,1-.21-.08c-.33-.22-.87-.58-.94-.65a.63.63,0,0,1-.15-.24,1.6,1.6,0,0,0-.19-.11.86.86,0,0,1-.29-.59l-3.5-2.42-.42,0a1,1,0,0,1-.51-.13l-.68-.48,0-.13,0-.07-.07-.13-.21-.18a1.31,1.31,0,0,1-.22-.6l-1.05-4,0-.08.19-.36-.35-1.42L227.59,68,225,57.81l-1.35-5.32.45-.11,1.35,5.32L228,67.88l1.55,5.91.47,1.92-.26,0c.16.59,1,3.65,1,3.93a2.23,2.23,0,0,0,.11.4,1.51,1.51,0,0,0,.2.16l0,0,.13.21.07.06v.1l.5.35a.35.35,0,0,0,.21.06l.49,0,.09,0,3.82,2.64v.11a1,1,0,0,0,.09.36,2.33,2.33,0,0,1,.27.17l.07,0,0,.08a.51.51,0,0,0,0,.1l.88.6.07,0h.14l0,.07c.16,0,.89-.08,1.58-.16a1.06,1.06,0,0,1,0-.15v-.15l.13-.07s.05,0,.06,0a.55.55,0,0,1,.11-.35l0,0s0-.16-.1-.41c0,0-1-3.71-1.14-4.43l-.39-.25-6.83-26.61-.25,0,.12-.28a1,1,0,0,0,.05-.22v-.08l.05-.07.44-.13a.48.48,0,0,1,0,.32.55.55,0,0,1,0,.17.32.32,0,0,1,.09.17l6.79,26.47.4.24,0,.1c.07.33,1,3.83,1.16,4.51.13.51.15.66,0,.79v0s0,.06,0,.07a.45.45,0,0,1-.17.39s0,.06,0,.08a.32.32,0,0,1,0,.29.35.35,0,0,1-.25.13C239.3,85.54,238.25,85.65,238.09,85.65Z"/><path class="cls-1" d="M235.91,80.17l-2.23-1.47v0s0-.14-.07-.27a.75.75,0,0,0-.35-.37.79.79,0,0,1-.32-.46c0-.07-.53-1.87-.58-2.09s-.26-.26-.34-.29l0,0v0l-5.89-23,.09,0a3.4,3.4,0,0,1,.43,0c.47,0,1.13,0,1.14,0h0l0,0a.72.72,0,0,0,.57.23h0l0,0a.85.85,0,0,0,.42.13l.49-.06.16.38-.23.06,6.85,26.71-.07,0c-.2.08-.18.36-.18.36Zm-2.07-1.59,1.88,1.25a.51.51,0,0,1,.21-.35l-6.87-26.74.21-.05,0,0-.37,0h0a1.06,1.06,0,0,1-.5-.14.93.93,0,0,1-.69-.28c-.15,0-.69,0-1.09,0h-.29L232.13,75c.1,0,.35.18.4.4s.57,2.06.58,2.08a.55.55,0,0,0,.22.34,1,1,0,0,1,.45.49C233.8,78.43,233.83,78.53,233.84,78.58Z"/></g></g></svg>