<?xml version="1.0" encoding="UTF-8"?>
<svg xmlns="http://www.w3.org/2000/svg" viewBox="0 0 509.66 510.36">
  <defs>
    <style>.a{fill:#1f1f1f;}</style>
  </defs>
  <path class="a" d="M254.15,510.36A255.18,255.18,0,0,1,255.22,0h.49A254.85,254.85,0,0,1,489.86,353.13,256,256,0,0,1,254.15,510.36ZM255.23,20C125.49,20,19.93,125.56,19.93,255.3s105.56,235.31,235.3,235.31S490.54,385.05,490.54,255.3,385,20,255.23,20ZM50.88,391.12A244.61,244.61,0,0,0,118.49,459a249.29,249.29,0,0,1-67.61-67.92ZM255.23,10a246.88,246.88,0,0,1,58.94,7.09A243.73,243.73,0,0,0,255.24,10Zm-42,353.77h0l214-214-14.14-14.14-214,214-98.4-98.39L86.59,265.37,199.13,377.91Z"></path>
</svg>
