<?xml version="1.0" encoding="UTF-8"?>
<svg xmlns="http://www.w3.org/2000/svg" viewBox="0 0 509.66 510.35">
  <defs>
    <style>.a{fill:#1f1f1f;}</style>
  </defs>
  <path class="a" d="M402.74,253.89l0,0c0-.13-.11-.25-.11-.36-.48-1-1-1.95-1.55-3-5.68-9.58-8.64-19.88-11.84-30.77-1.78-6.28-3.67-12.79-6.16-19.18a23.16,23.16,0,0,1-1.76-7.7c0-1.77.35-4.25,3.54-7a13.49,13.49,0,0,0,4-9.07,7.72,7.72,0,0,0-1-3.79c-2.24-3.79-7-5.93-10.29-6.4-4.63-.58-10.31-1.18-11.25-2.13-.12-.11-.48-1-.48-4.73,0-1.94.12-4.15.24-6.86v-.72c0-4.86-2.84-12.55-5.69-15.15a6.28,6.28,0,0,0-4.49-1.78c-9.59.59-18.83,1.31-26.88,5.33-6.14,3.08-9.71,9.24-9.71,16.7a26.14,26.14,0,0,0,2.13,10.17c2.13,5.33,5.45,9.82,8.64,14.33,1,1.42,2,2.72,3,4.14,2,3,2.84,5,3.08,6.39a4.68,4.68,0,0,1,.12,1.18c0,2.37-2.72,4.38-7.94,5.93a32.71,32.71,0,0,0-4.49,1.77,4.89,4.89,0,0,0-1.07.6c-1.19.71-2.36,1.42-3.31,2.12-.12.12-.24.12-.24.24a15.57,15.57,0,0,0-2.72,2.84,6,6,0,0,0-.6.83,14.31,14.31,0,0,0-1.53,3c0,.12-.12.23-.23.35-.13-1.06-.36-2.24-.48-3.31v-.48c0-2,1.42-5,2.6-7.69.59-1.18,1.07-2.37,1.54-3.55a23.93,23.93,0,0,1,3-4.86c.59-1,1.3-1.78,1.78-2.73a5,5,0,0,0,.59-4.25,5.09,5.09,0,0,0-2.72-3.33c-.84-.46-1.66-1-2.49-1.41-2.25-1.3-4.74-3-7.82-3.67-7.34-1.78-7.34-3.55-7.34-5.33a18.23,18.23,0,0,1,.84-5,44.77,44.77,0,0,0,2.11-12.15q0-6-3.54-9.59c-3.89-3.78-10.19-4.49-18.36-4.26C261.27,140.16,258,154,258,162.18a46.07,46.07,0,0,0,1.3,10.06c1.19,5.09,3.79,9.83,5.83,13.6,2.6,4.74,3.08,7.46,3.08,9,0,1.07,0,4-10.3,5.69a15.78,15.78,0,0,0-2.25.47c.71-.71,1.42-1.3,2-2l1.43-1.42a5.23,5.23,0,0,0,1.77-3.78,4.88,4.88,0,0,0-1.54-3.89c-.59-.58-1.07-1.18-1.53-1.65a35.6,35.6,0,0,0-4.8-4.71A23.6,23.6,0,0,0,248.7,181a11.28,11.28,0,0,1-2.84-1.77c-2-2-2.25-3.32-2.25-4.38a12.68,12.68,0,0,1,2-5.82l1.07-1.77c3.19-5,5.2-9.12,5.2-13,0-8.53-9-11.37-14.91-13.26l-1.18-.36a29.16,29.16,0,0,0-10.9-1.78A25.74,25.74,0,0,0,209,144.56a25.15,25.15,0,0,0-8.74,19.53,27.62,27.62,0,0,0,.48,5.45c.47,2.73,1.18,5.33,1.77,7.82.35,1.54.83,3.2,1.18,4.73a23,23,0,0,1,.72,6.39,5.55,5.55,0,0,1-1.07,3.56c-.71.59-2.49,1.54-7.1,1.54a13,13,0,0,1-2.25-.13c-13.51-.82-19.78,3.68-23.09,16.34-.83,3.08-1.54,6.16-2.24,9.12.46-4.61,1-9.24,1.41-14,.71-7,2.37-9.71,6.63-11.13,2.37-.82,9.48-5,9.48-10.3a3.93,3.93,0,0,0-.13-1.18c-.83-4.5-4.73-8.52-8.28-10.53a32.12,32.12,0,0,1-5.46-3.62c-1.18-1.07-1.77-1.89-1.77-2.48a7.35,7.35,0,0,1,.47-1.9,39.26,39.26,0,0,1,3.19-5.92c3.67-5.56,5.22-9.71,5.22-13.6,0-10.18-11.37-13.5-15.63-14.8a55.42,55.42,0,0,0-7.1-1.54,9,9,0,0,0-1.54-.24,2.51,2.51,0,0,0-1-.11c-14.68-.35-25,8.64-25.45,22.26-.23,5.68.71,11.36,1.53,16.8.25,1.89.6,3.8.84,5.56a16.37,16.37,0,0,1,0,4.74,4.63,4.63,0,0,1-1.43,2.84c-1,.83-2.6,1.3-4.86,1.43a17.12,17.12,0,0,1-2.37-.13,38.64,38.64,0,0,0-6.27-.23c-.59,0-1.18.11-1.66.11a30.56,30.56,0,0,0-3.55.48l-1.66.36a28.29,28.29,0,0,0-2.84,1.18,12.56,12.56,0,0,0-1.3.71,12.79,12.79,0,0,0-2.72,2.36,5.46,5.46,0,0,1-.48.36c.24-1.18.48-2.37.59-3.43,1.43-7.11,2.73-9.94,7.77-11.13,6.39-1.54,8.65-5.82,8.65-9.35,0-2.49-1.07-6.16-5.83-9.83-1.94-1.42-4.38-3.31-5.83-4.61L106.27,147c.36-1.3,2.49-4.5,4.74-7.77,2.37-3.55,3.56-9.6,3.56-12.63,0-3.54-1.66-5.2-3.08-6-6.4-3.43-14.33-7.69-22.61-8.28-9-.59-16.22,6.15-18.45,17.28A24.9,24.9,0,0,0,70,135c0,1.3.13,2.6.13,4s0,2.6.11,3.78c.24,3.33.35,5.69.35,7.46,0,4-.59,4.86-.59,4.86q-.7.54-3.54.36a58.63,58.63,0,0,1-7.7-.82c-13.37-1.76-17.63,9.36-19.05,12.91-4.74,12.19-9.83,25.25-14.33,38.24-.14.35-.26.7-.39,1.06h0a26.28,26.28,0,0,0-1.35,6.92c0,.3,0,.59,0,.89a13.65,13.65,0,0,0,4.08,10.17c3.2,3.08,8.05,4.51,14.45,4.15,9.81-.48,17.39,2,24.5,8.05,7.69,6.51,14,5.83,16.93,4.73a1.61,1.61,0,0,1,.71-.23c-.12.59-.25,1.18-.36,1.78a6.58,6.58,0,0,0-.23,1.53,37.83,37.83,0,0,0-.48,5c0,7.1,2.91,11.13,5.45,13.14,4.61,3.89,11.59,4.86,21.19,3.08,8.4-1.53,14.68-.23,20.47,4.38a39.69,39.69,0,0,0,9,5.34c6,2.6,12,2.6,16.57-.13a13.68,13.68,0,0,0,2.84-2.24c.24-.25.47-.6.83-1a13.89,13.89,0,0,0,1.18-1.3c0,.12.12.12.12.25a9.1,9.1,0,0,0,1.3,2,7.38,7.38,0,0,0,.59,1,9.2,9.2,0,0,0,1.9,1.94l.11.12q5,4.1,13.15,3.55a35.62,35.62,0,0,0,5.82-.82c10-2.14,17.77-.71,26.05,4.73,10.18,6.79,17.16,5.82,21.19,3.78,4-1,9.11-5.91,10.07-18.45v.71c0,8.17,3.19,14.8,8.64,18.23,5.2,3.19,11.71,3.08,18.45-.23,9.83-5,19.06-5.57,29.84-1.78a28.61,28.61,0,0,0,10.89,1.66,17.3,17.3,0,0,0,8.87-3l.12-.12a9.21,9.21,0,0,0,2-1.78.56.56,0,0,0,.24-.36,10.5,10.5,0,0,0,1.42-1.89.12.12,0,0,1,.12-.12,14.94,14.94,0,0,0,1.89-4.49c0,.11.13.11.13.23a18.89,18.89,0,0,0,1.77,3.88c.12.13.12.36.24.48a29.33,29.33,0,0,0,2.13,2.85,1.75,1.75,0,0,0,.47.47,16.92,16.92,0,0,0,2.24,1.9c.13.11.25.11.36.23a10.13,10.13,0,0,0,2.26,1.18c3.54,1.54,9.35,2.25,17-2.6,11.48-7.11,20.24-12,29.36-8.05a11.75,11.75,0,0,0,2,.48c8.29.11,14.68-1.9,18.71-5.83a14.53,14.53,0,0,0,3.79-6.63v-.11A18.08,18.08,0,0,0,402.74,253.89ZM92.23,181.67c-1.18,6.28-2.37,12.63-3.55,19-1.54,8.29-3.08,16.8-4.74,25.1-.71,3.67-2.13,6.27-3.79,6.87s-4-.48-6.63-2.73c-9.23-7.93-19.42-11.25-32-10.54-4.5.24-6-.83-6.52-1.18-.23-.24-.71-.72-.71-2.48a17.08,17.08,0,0,1,1.07-5.34c4.5-12.78,9.47-25.68,14.21-37.87,2.25-5.83,4.38-6.64,7.77-6.28s6.28.71,8.88.83c4.5.11,8-.59,10.77-3.08,3.67-3.31,4.26-8.29,4.26-12.9,0-2.14-.11-4.62-.35-8.05,0-1.19-.11-2.49-.11-3.67s-.13-2.37-.13-3.44a26.18,26.18,0,0,1,.24-3.31c.35-1.54,2.13-9.24,7.34-8.88s10.54,2.92,15.62,5.57a18.27,18.27,0,0,1-1.65,5c-1.3,2-2.37,3.67-3.32,5.09-2,3.19-3.07,5.83-3.07,8.52a8.53,8.53,0,0,0,.83,3.88c1.53,3.55,5.32,6.39,10.29,10.18a.87.87,0,0,1,.48.48C98.34,164.72,95,171,93.38,176.56,92.82,178.48,92.58,180.26,92.23,181.67Zm71.38,10.19c-3.32,4.73-3.89,10.18-4.26,13.14-.83,8.17-1.66,16.21-2.48,24.39-1.07,10.53-2.14,21.3-3.33,32.05-.11.83-.23,1.54-.35,2.24a6.3,6.3,0,0,1-2.6,4.15,4.76,4.76,0,0,1-2.91.59c-1.3-.59-2.61-1-4-1.54a22.7,22.7,0,0,1-6.52-3.89,36.14,36.14,0,0,0-6.39-4.13,32.58,32.58,0,0,0-14.44-3.32,39.33,39.33,0,0,0-8.17.83c-.94.2-1.89.36-2.85.47s-1.65.11-2.36.24c-4.4.26-6.34-.71-7.31-1.42-.35-.35-1.66-1.42-1.66-5a26,26,0,0,1,.4-4,42.45,42.45,0,0,1,1.18-4.73c3.56-11.61,7.1-24.16,10.77-38.48,2.85-11.13,4.27-12.19,15.27-11,6.63.71,11.84-.59,15.54-3.88a15,15,0,0,0,4-6.74,18.43,18.43,0,0,0,1-6.16c0-1.3-.11-2.6-.23-4-.24-2-.59-3.88-.84-5.91A81.21,81.21,0,0,1,139.64,151a12.37,12.37,0,0,1,2.37-7.11c2.37-3.19,6.5-4.85,11.84-4.85.34.12.82.12,1.3.24a44.18,44.18,0,0,1,5.91,1.3c3,.83,7.94,2.6,7.94,4.61,0,1-.48,3.08-3.56,7.77-3.88,5.92-5.44,9.82-5.44,13.6,0,7.59,6.51,11.84,12.63,15.39a6.92,6.92,0,0,1,2.13,1.9,8,8,0,0,1-1.54,1A19,19,0,0,0,163.61,191.86ZM241,266.32a3.48,3.48,0,0,1-.11-1.06,17.24,17.24,0,0,1,0-2.49,3.51,3.51,0,0,1,.11-1.07Zm-.89-67.87a17.93,17.93,0,0,0-4.67,6.55,27,27,0,0,0-2,10.69v.82c0,2.72-.25,5.57-.48,8.4-.12,1.07-.12,2.14-.23,3.2-.36,4.38-.59,8.74-1,13L230.36,262c-.12,1.18,0,2.48,0,3.67a18.8,18.8,0,0,1,0,2.6c-.48,5.68-2,9.71-4.15,10.78-2.24,1.3-6.15.12-10.77-3-10.54-7-21.42-8.88-34-6.28-4.74,1-8.29.71-10.06-.71-1.42-1.18-2-3.55-1.78-6.86a22.64,22.64,0,0,1,.59-3.67c2.85-13.38,6.27-27.82,10.77-45.47,2-7.92,3.56-8.87,12.07-8.4a43.14,43.14,0,0,0,5.57,0c5.09-.36,8.89-1.78,11.61-4.38,3-2.72,4.49-6.75,4.49-11.72a37,37,0,0,0-1.07-8.17c-.35-1.65-.82-3.43-1.18-5.09-.59-2.48-1.18-4.73-1.65-7a16,16,0,0,1-.24-4.15c0-.35.12-.58.12-1a25.23,25.23,0,0,1,.51-3c.12-.35.24-.71.36-1a20.25,20.25,0,0,1,1.18-2.49c.12-.24.35-.59.48-.83a15.92,15.92,0,0,1,2.24-2.61,12.9,12.9,0,0,1,4.29-2.41,17.89,17.89,0,0,1,5.18-.9,21.91,21.91,0,0,1,3.79.36,25.27,25.27,0,0,1,3.32,1l1.3.48c2.84,1,4.61,1.66,5.68,2.12a4.54,4.54,0,0,1,1.78,1.19c0,.71-.59,2.6-3.56,7.23-2.13,3.31-4.38,7.57-4.61,12.3,0,.36-.12.59-.12,1a15.07,15.07,0,0,0,1.4,6.34,19,19,0,0,0,4.16,5.73,20.5,20.5,0,0,0,5.45,3.56,11,11,0,0,1,2.6,1.53c.48.36,1,.84,1.55,1.31A22.72,22.72,0,0,0,240.14,198.45Zm71.33,77.81a7.38,7.38,0,0,1-4.14,1.07,12.5,12.5,0,0,1-2.85-.36c-1-.23-2-.47-3.08-.82a52.15,52.15,0,0,0-14.67-3,43,43,0,0,0-18.71,3.2,39.3,39.3,0,0,0-4.61,2.14c-1.89,1-5.45,2.36-8.17.7-2.25-1.41-3.55-4.74-3.55-9.12v-.23c.23-15.27-.36-30.89-.83-45.34-.24-6.39,3.43-11.95,8.29-12.62,12.78-2.14,19.29-7.59,19.29-16.34,0-3.88-1.42-8.53-4.38-14-2.25-4.14-4-7.58-4.85-11.12a32,32,0,0,1-1.07-7.59c0-5.68,1.89-11.6,15.63-12h2.84c5.09,0,6.87.6,7.58,1.07.11.12.23.12.23.24a3.52,3.52,0,0,1,.36,2,39.32,39.32,0,0,1-1.78,9.35,29.19,29.19,0,0,0-1.18,7.77c0,12,11.25,14.67,15.54,15.63a10.43,10.43,0,0,1,2.72,1.18,24.83,24.83,0,0,0-2.49,4.73c-.47,1.07-1,2-1.42,3.08s-.83,1.89-1.3,2.84a23.24,23.24,0,0,0-2.37,9.24,15.32,15.32,0,0,0,.23,2.24c1,6.05,1.55,12.2,2.14,18.35.23,3.08.59,6.28,1,9.35,1.07,9.47,2.61,19.07,6.28,28.54C313.84,271.06,313.6,274.82,311.47,276.26Zm81.35-12.43-.36.36c-1,.82-3.08,1.89-7.34,2.25-.7,0-1.54.12-2.37.12a26.66,26.66,0,0,0-10.68-1.78c-7,.23-13.5,2.92-19.3,6.16-2.91,1.53-5.68,3.31-8.17,4.86-3,1.89-5.56,2.47-7.34,1.76s-3.43-3.43-4.14-7.21c-3.88-17.76-7-35.75-9.23-49.49a22.51,22.51,0,0,1-.23-2.72c0-2.84.59-5.82,7.77-7.93,12.43-3.89,15.15-11,15.15-16.1,0-4.14-1.65-8.52-5.09-13.5-1-1.42-2-2.84-3.08-4.38a79,79,0,0,1-6-9.12A17.15,17.15,0,0,1,331,164a16.31,16.31,0,0,1-1.3-6.16c0-3.55,1.3-5.92,3.88-7.22,5.56-2.84,12.55-3.67,20-4.15a18.36,18.36,0,0,1,1.66,6.16v.25c0,1.17-.12,2.36-.12,3.42,0,1.42-.11,2.72-.11,3.79,0,14.92,7.46,15.86,21.19,17.41a2.72,2.72,0,0,1,1.54.59v.12a22,22,0,0,0-5.34,6.86,18.66,18.66,0,0,0-1.76,8,33.28,33.28,0,0,0,2.48,11.48c2.25,5.92,4,12,5.92,18.35.82,2.73,1.66,5.56,2.48,8.41,2.61,8.4,5.68,16.81,10.42,24.85a11,11,0,0,1,1.77,5.09A3.79,3.79,0,0,1,392.82,263.83Zm89.94-32.71a41.27,41.27,0,0,0-3.54-6.28,32.56,32.56,0,0,1-2-3.42c-1.07-2-2.26-4-3.32-6-2.72-4.86-5.33-9.47-7.46-14.33a100.83,100.83,0,0,1-3.67-10.3A105.3,105.3,0,0,0,459,179.87c-1.3-3.08-2.48-6.16-2.48-8.89,0-1.53.35-3.66,2.84-6.39,2.84-2.91,3.08-7.46,3.08-8.74a11.24,11.24,0,0,0-.71-4c-1.66-4.62-7.82-6-10.77-6.28h-.25c-4.49-.24-9-.47-10.77-1-.23-.11-.47-.11-.59-.23-.71-1-.71-6.16-.71-7.77V132c0-9.36-4-14.92-12-16.46-9.35-2.12-25.68,4.27-30.66,11.84a22.79,22.79,0,0,0-3.43,9.36,34.88,34.88,0,0,0-.24,3.54,30.17,30.17,0,0,0,6.16,18c1.78,2.25,3.55,4.38,5.45,6.39a69,69,0,0,1,5.56,6.63,8.12,8.12,0,0,1,1.77,4.61c0,2.85-2.49,4.63-4.5,5.57-5,2.37-9.71,5.09-12.89,9a14.38,14.38,0,0,0-2,3.16c-.12.13-.12.24-.24.36a16.67,16.67,0,0,0-1.42,7.1,27.5,27.5,0,0,0,.37,4.25,51.77,51.77,0,0,0,1.17,5.22c.36,1.31.71,2.61,1.18,4.15a319.51,319.51,0,0,1,8.75,33.5c2.25,11.37,6.5,18,13,20.48s13.6.11,22.25-6.63c7-5.56,12.79-8.05,23.68-5.68a5.38,5.38,0,0,0,3.31-.36c.59-.23,1.78-.59,2.91-1.07,4.38-1.42,10.43-3.31,14.21-7.92a13.72,13.72,0,0,0,3.32-8.74A18.45,18.45,0,0,0,482.76,231.12ZM472.7,240v0c-1.89,2.25-6.15,3.67-9.23,4.62a14.45,14.45,0,0,0-2.37.82c-13.85-2.48-22.33,1.42-30.89,8.17A30.27,30.27,0,0,1,423.1,258a10.8,10.8,0,0,1-2.84.84,5.88,5.88,0,0,1-2.13-.13c-1.3-.46-2.49-1.89-3.55-4a36,36,0,0,1-2.73-8.53,292.37,292.37,0,0,0-9.11-34.56c-.36-1.19-.71-2.37-1-3.31a28.58,28.58,0,0,1-1.18-7.1c0-3.08.72-5.45,10.53-10.07,6.75-3.2,10.54-8.74,10.54-15.16a22.51,22.51,0,0,0-.23-2.72A19.62,19.62,0,0,0,418,165.3a84,84,0,0,0-6.39-7.69c-1.78-1.9-3.31-3.67-4.86-5.57a19.32,19.32,0,0,1-4-11.48,13,13,0,0,1,1.9-7c1-1.42,3.31-3.08,6-4.38a32.49,32.49,0,0,1,11.49-3.31,11.7,11.7,0,0,1,2.13.11c1.54-.11,2.6.24,3.19,1.65a11,11,0,0,1,.48,4v4.73a52.41,52.41,0,0,0,.59,8.3c1.78,9.82,7.77,10.68,21.42,11.36h.25a6.45,6.45,0,0,1,1.3.23,2.4,2.4,0,0,1-.24,1,19.56,19.56,0,0,0-5.57,13.49c0,4.61,1.54,9,3.32,13,1.3,3.08,2.36,6.39,3.43,9.82a108.85,108.85,0,0,0,4,11.37c2.36,5.33,5.09,10.41,7.77,15.27,1.07,2,2.13,3.89,3.2,5.92.71,1.42,1.66,2.72,2.48,4.14,1.66,2.72,3.56,5.68,3.56,7.69A2.92,2.92,0,0,1,472.7,240ZM123.12,319.54l-7.18,8.07-18.72,21,6.83,7.36,19.35-21.72,7.18-8.06ZM104.05,356l-6.83-7.36-16-17.21-11-11.86-7.32,6.8,11,11.86,48.48,52.15H136Zm-6.83-7.36-2.58,2.9,7.46,6.65,2-2.19ZM62.65,390.36q3.59,5.1,7.43,10h81.26v-10Zm73.37,0H122.38l7.81,8.4,7.32-6.8ZM70.19,319.55l-7.32,6.8,11,11.86a26,26,0,0,0,7.31-6.8Zm-10.11-29.7A26.16,26.16,0,1,0,73.9,338.21l-11-11.86,7.32-6.8,11,11.86a26,26,0,0,0,5-15.39v0A26.17,26.17,0,0,0,60.08,289.85Zm0,33.55a7.39,7.39,0,1,1,7.38-7.4A7.39,7.39,0,0,1,60.08,323.4Zm63-3.86-7.18,8.07a25.94,25.94,0,0,0,7.46,6.65l7.18-8.06Zm13.65-33.92h-.05a26.16,26.16,0,0,0-20.78,42l7.18-8.07,7.46,6.66-7.18,8.06a26.16,26.16,0,1,0,13.37-48.64Zm7.34,26.16a7.37,7.37,0,0,1-7.38,7.38h0a7.39,7.39,0,1,1,7.39-7.39Zm162.57,78.58v10H190.62v-10H269.3l4.09,6.9,8.6-5.1-1.07-1.8Zm-22.56-43.18-21.09,13,5.1,8.59,21.24-13.11A26,26,0,0,1,284.12,347.18Zm-16,21.62-1.45.9-5.26-8.5,1.61-1L252.46,342.4a25.93,25.93,0,0,1-8.59,5.11l25.43,42.85h11.62Zm-5.1-8.59-1.61,1,5.26,8.5,1.45-.9Zm17.89,30.15H269.3l4.09,6.9,8.6-5.1ZM247.2,333.53l-8.6,5.1,5.27,8.88a25.93,25.93,0,0,0,8.59-5.11Zm14-10.66a26.08,26.08,0,0,1-8.76,19.53l-5.26-8.87-8.6,5.1,5.27,8.88a26.16,26.16,0,1,1,17.35-24.64Zm-18.77,0a7.39,7.39,0,1,0-7.39,7.39h0a7.37,7.37,0,0,0,7.38-7.38Zm92.3,15.08a26.16,26.16,0,0,1-45.38,17.75l6.9-4.26-5.26-8.5-6.89,4.25a25.78,25.78,0,0,1-1.69-9.24,26.16,26.16,0,1,1,52.32,0Zm-18.77,0a7.39,7.39,0,1,0-7.39,7.39h0a7.37,7.37,0,0,0,7.38-7.38Zm-25,5-6.89,4.25a26,26,0,0,0,5.25,8.51l6.9-4.26Zm148.44-55.46a26.16,26.16,0,0,0-5,51.84,26.28,26.28,0,0,0,10,0,26.16,26.16,0,0,0-5-51.84Zm7.39,26.16a7.37,7.37,0,0,1-7.39,7.37h0a7.39,7.39,0,1,1,7.39-7.39Zm-12.39,9.24v16.44a26.28,26.28,0,0,0,10,0V322.87Zm0,67.49v5h10v-5Zm5-50.57a25.77,25.77,0,0,1-5-.48v51.05h10V339.31A25.77,25.77,0,0,1,439.45,339.79Zm-88.83,50.57v10H456.3v-10Zm-327-176.54q.61-3.48,1.35-6.92A26.28,26.28,0,0,0,23.59,213.82ZM447.82,390.36q-1.65,2.36-3.37,4.66c-.08.12-.16.23-.25.34-1.25,1.69-2.52,3.35-3.81,5H456.3v-10Zm42.95-231.58A253.17,253.17,0,0,0,255.71,0h-.48A254.85,254.85,0,1,0,490.77,158.78ZM314.13,17.08q-3.57-.87-7.17-1.65Q310.56,16.2,314.13,17.08Zm-7.19-1.66a247,247,0,0,0-41.25-5.2A241.88,241.88,0,0,1,306.94,15.42ZM50.83,391.06a249.65,249.65,0,0,0,65,66.17A244.71,244.71,0,0,1,50.83,391.06Zm397-.7h8.48v10H440.39a235.06,235.06,0,0,1-370.31,0h-10v-10h2.57A235.3,235.3,0,0,1,23.59,213.82a26.28,26.28,0,0,1,1.35-6.92h0C47.32,100.29,142.08,20,255.23,20,385,20,490.54,125.56,490.54,255.3A234,234,0,0,1,447.82,390.36Zm-377.74,10h-10v-10h2.57Q66.24,395.46,70.08,400.36Z"></path>
</svg>
