<?xml version="1.0" encoding="UTF-8"?>
<svg xmlns="http://www.w3.org/2000/svg" viewBox="0 0 509.66 510.36">
  <defs>
    <style>.a{fill:#1f1f1f;}</style>
  </defs>
  <path class="a" d="M254.15,510.36A255.18,255.18,0,0,1,255.22,0h.49A254.84,254.84,0,0,1,489.86,353.13,256,256,0,0,1,254.15,510.36ZM255.23,20C125.49,20,19.93,125.56,19.93,255.3s105.56,235.31,235.3,235.31S490.54,385.05,490.54,255.3,385,20,255.23,20ZM50.86,391.1A244.79,244.79,0,0,0,118.5,459,249.28,249.28,0,0,1,50.86,391.1ZM255.23,10a247.42,247.42,0,0,1,58.93,7.08A244.7,244.7,0,0,0,255.24,10ZM341,250.44A85.63,85.63,0,0,1,338,273c-1.09-18.78-8.72-29.67-17.19-36-.68-.51-1.36-1-2-1.43l-.21-.14-.82-.51-1-.61-1-.57c-.31-.18-.64-.34-1-.51l-1.09-.53c-1-.48-2.07-.94-3.16-1.37-1.44-.56-2.94-1.07-4.51-1.51H306c-13.73-3.83-32.25-2.09-52.53,18.92-13.13,13.5-24.71,18.19-34.59,18.49h-.8c-6.6,0-13.27-2-20.12-5.8q-1.5-.83-3-1.77a25.2,25.2,0,0,1-2.22-1.62,10.54,10.54,0,0,1-1.15-1,24.29,24.29,0,0,1-1.85-1.81c-.37-.4-.72-.81-1.07-1.23-10.24-12.33-10.95-33-10.84-40.5a85.78,85.78,0,0,1,163.21,37Zm-7.9,30.84c-.06,1.21-.13,2.45-.23,3.71-.06.75-.13,1.51-.21,2.27a85.78,85.78,0,0,1-163.26-36.82,84.81,84.81,0,0,1,3.83-25.2c.72,7.34,2.48,16.3,6.48,24.2.22.46.46.91.71,1.35s.43.78.66,1.16l.06.11.45.75.24.37.1.16c.18.29.37.57.56.86.34.49.68,1,1,1.45a33.9,33.9,0,0,0,3.06,3.59,13,13,0,0,0,1,.95l.08.08c.35.32.7.64,1.07,1a12,12,0,0,0,1.13.92l.11.09c.35.27.71.53,1.08.79s.82.56,1.24.83c1.13.72,2.26,1.39,3.39,2s2.08,1.12,3.12,1.62h0c.81.39,1.63.76,2.44,1.1,18.22,7.7,35.79,3.06,53.36-14,.39-.38.79-.76,1.18-1.16l1.22-1.23c.41-.42.77-.79,1.15-1.16l1.11-1.09c14.6-14,29.88-19.3,44.72-15.49a43,43,0,0,1,4.3,1.37c1.09.41,2.18.88,3.26,1.39.45.21.89.43,1.33.66.7.36,1.39.75,2.06,1.16a33.12,33.12,0,0,1,4,2.72q1.33,1.07,2.55,2.25c.8.79,1.57,1.62,2.3,2.48h0C330.59,254.67,333.73,266.3,333.13,281.28ZM108.29,295.49l12.06-8,49,73.47-12.06,8Zm-36.62,24.4,12.07-8.05,49,73.47-12.07,8.05ZM90,307.77l12.07-8,22.41,33.61-12.07,8.05Zm26.54,39.77,22.4,33.6,12.1-8-22.5-33.7Zm322.3-27.8-12.1-8-22.3,33.7,12,8Zm-60.9,65.6,12,8,22.4-33.7-12.1-8Zm42.5-77.7-12.1-8L386,333.24l12.1,8.1Zm-60.8,65.5,12,8,22.4-33.6-12.1-8ZM341.23,361l12.1,8,22.3-33.6-12.1-8.1Zm26.5-40,22.34-33.66,12.08,8-22.33,33.67Zm52.7-128-12.1,8.1-48.7-73.7,12.1-8Zm6.3-4.1,12.1-8-22.3-33.7-12.1,8Zm-36.6-81.6-12.2,7.9,22.3,33.8,12.1-8Zm-22.36,72.13,12.09-8,22.3,33.69-12.09,8Zm-14.34-47.93-12.1,8,22.3,33.7,12-8Zm-233.1,81.7-12.1-8.1,49.1-73.4,12,8.1ZM102,200.94l-12.1-8.1,49.1-73.3,12.1,8Zm-18.3-12.2-12.1-8.1,49.1-73.3,12.1,8Z"></path>
</svg>
