<?xml version="1.0" encoding="UTF-8"?>
<svg xmlns="http://www.w3.org/2000/svg" viewBox="0 0 509.66 510.35">
  <defs>
    <style>.a{fill:#1f1f1f;}</style>
  </defs>
  <path class="a" d="M254.15,510.35A255.18,255.18,0,0,1,255.23,0h.48A254.84,254.84,0,0,1,489.86,353.13,255.93,255.93,0,0,1,254.15,510.35ZM255.23,20C125.49,20,19.93,125.56,19.93,255.3s105.56,235.31,235.3,235.31S490.54,385.05,490.54,255.3,385,20,255.23,20ZM50.84,391.06A244.58,244.58,0,0,0,118.36,459a249.24,249.24,0,0,1-67.52-67.89ZM255.23,10a247.13,247.13,0,0,1,58.91,7.08A242.06,242.06,0,0,0,255.24,10ZM80.58,152.62V354.29L255.23,455.13,429.89,354.29V152.62L255.23,51.78Z"></path>
</svg>
